Recursive Mono-Casual A Italic.ufo
<glyph name="question" format="2">
	<unicode hex="003F"/>
	<advance width="600"/>
	<outline>
		<contour>
			<point x="419.2818358703" y="720" type="qcurve" smooth="yes"/>
			<point x="369.2818358703" y="720"/>
			<point x="279.6078858513" y="686.8656716418"/>
			<point x="245.2776561062" y="660" type="qcurve" smooth="yes"/>
			<point x="215.6118654011" y="636.8656716418"/>
			<point x="173.5522904652" y="585.1194029851"/>
			<point x="167.0206201698" y="559" type="qcurve" smooth="yes"/>
			<point x="164.0347137491" y="547.0597014925"/>
			<point x="174.5558416411" y="528.9701492537"/>
			<point x="182.0181123113" y="523" type="qcurve"/>
			<point x="187.0181123113" y="523" type="line"/>
			<point x="220.9778070839" y="587.1791044776"/>
			<point x="329.9126810917" y="670"/>
			<point x="406.7783527335" y="670" type="qcurve" smooth="yes"/>
			<point x="482.4577591695" y="670"/>
			<point x="562.3372055044" y="604.2537313433"/>
			<point x="550.0203415189" y="555" type="qcurve" smooth="yes"/>
			<point x="546.287958493" y="540.0746268657"/>
			<point x="541.4957907951" y="523.9552238806"/>
			<point x="537.0175550094" y="515" type="qcurve"/>
			<point x="556.2572938154" y="515"/>
			<point x="578.7214722259" y="549.8059701493"/>
			<point x="581.5207594953" y="561" type="qcurve" smooth="yes"/>
			<point x="595.5171958425" y="616.9701492537"/>
			<point x="530.4758657211" y="720"/>
		</contour>
		<contour>
			<point x="591.7848128165" y="602.0447761194"/>
			<point x="551.9884017663" y="685.7014925373"/>
			<point x="506.2787707099" y="676" type="qcurve"/>
			<point x="521.5755106107" y="650.6268656716"/>
			<point x="539.847984677" y="598.2985074627"/>
			<point x="529.7705505071" y="558" type="qcurve" smooth="yes"/>
			<point x="519.5064971858" y="516.9552238806"/>
			<point x="464.3599254058" y="448.328358209"/>
			<point x="408.7605190731" y="414" type="qcurve" smooth="yes"/>
			<point x="382.7594044693" y="398" type="line" smooth="yes"/>
			<point x="334.2498622981" y="368.1492537313"/>
			<point x="262.0846202851" y="299.328358209"/>
			<point x="253.5001393255" y="265" type="qcurve" smooth="yes"/>
			<point x="252.2497910118" y="260" type="line" smooth="yes"/>
			<point x="250.0103611962" y="251.0447761194"/>
			<point x="266.6175917539" y="237"/>
			<point x="290.4981887689" y="237" type="qcurve" smooth="yes"/>
			<point x="296.4981887689" y="237" type="line"/>
			<point x="298.9988853962" y="247" type="line" smooth="yes"/>
			<point x="306.8368897506" y="278.3432835821"/>
			<point x="350.3774846103" y="325.447761194"/>
			<point x="412.5071055991" y="365" type="qcurve" smooth="yes"/>
			<point x="437.5082202028" y="381" type="line" smooth="yes"/>
			<point x="498.8915725349" y="420.552238806"/>
			<point x="566.3336929629" y="500.2686567164"/>
			<point x="579.7702718561" y="554" type="qcurve" smooth="yes"/>
			<point x="581.5207594953" y="561" type="line" smooth="yes"/>
		</contour>
		<contour>
			<point x="281.4823056651" y="9" type="qcurve"/>
			<point x="296.736555092" y="70" type="line" smooth="yes"/>
			<point x="303.081606236" y="95.3731343284"/>
			<point x="274.8038193783" y="125"/>
			<point x="237.4903865424" y="125" type="qcurve" smooth="yes"/>
			<point x="221.0724760947" y="125"/>
			<point x="194.3704761631" y="117.7164179104"/>
			<point x="182.9894112641" y="111" type="qcurve"/>
			<point x="167.7351618373" y="50" type="line" smooth="yes"/>
			<point x="161.3901106932" y="24.6268656716"/>
			<point x="189.667897551" y="-5"/>
			<point x="226.9813303868" y="-5" type="qcurve" smooth="yes"/>
			<point x="243.3992408345" y="-5"/>
			<point x="270.1012407661" y="2.2835820896"/>
		</contour>
	</outline>
</glyph>
<glyph name="C" format="2">
	<unicode hex="0043"/>
	<advance width="600"/>
	<outline>
		<contour>
			<point x="465" y="672" type="qcurve" smooth="yes"/>
			<point x="528.4328358209" y="672"/>
			<point x="582.4328358209" y="613.2388059701"/>
			<point x="569" y="561" type="qcurve"/>
			<point x="577.2089552239" y="561"/>
			<point x="589.5074626866" y="572.5373134328"/>
			<point x="591" y="580" type="qcurve" smooth="yes"/>
			<point x="599.2089552239" y="612.8358208955"/>
			<point x="593.4328358209" y="661.0895522388"/>
			<point x="580" y="679" type="qcurve" smooth="yes"/>
			<point x="567.3134328358" y="695.4179104478"/>
			<point x="518.776119403" y="720"/>
			<point x="474" y="720" type="qcurve" smooth="yes"/>
			<point x="346.3880597015" y="720"/>
			<point x="141.5074626866" y="489.776119403"/>
			<point x="93" y="295" type="qcurve" smooth="yes"/>
			<point x="86" y="267" type="line" smooth="yes"/>
			<point x="77.7910447761" y="233.4179104478"/>
			<point x="93.5820895522" y="150.7611940299"/>
			<point x="110" y="153" type="qcurve"/>
			<point x="113.7313432836" y="179.1194029851"/>
			<point x="129.0298507463" y="240.8656716418"/>
			<point x="135" y="264" type="qcurve" smooth="yes"/>
			<point x="139" y="280" type="line" smooth="yes"/>
			<point x="192.7313432836" y="494.9253731343"/>
			<point x="378.4328358209" y="672"/>
		</contour>
		<contour>
			<point x="276" y="-20" type="qcurve" smooth="yes"/>
			<point x="332.7164179104" y="-20"/>
			<point x="414.6865671642" y="4.1492537313"/>
			<point x="452" y="34" type="qcurve" smooth="yes"/>
			<point x="469.1641791045" y="48.1791044776"/>
			<point x="484.5223880597" y="80.0895522388"/>
			<point x="489" y="98" type="qcurve" smooth="yes"/>
			<point x="490.4925373134" y="105.4626865672"/>
			<point x="491.7462686567" y="124.5373134328"/>
			<point x="491" y="132" type="qcurve"/>
			<point x="487" y="132" type="line"/>
			<point x="445.2089552239" y="76.776119403"/>
			<point x="339.1791044776" y="28"/>
			<point x="275" y="28" type="qcurve" smooth="yes"/>
			<point x="154.8507462687" y="28"/>
			<point x="111.3731343284" y="203.2388059701"/>
			<point x="136" y="301" type="qcurve"/>
			<point x="115.1044776119" y="301"/>
			<point x="92.7164179104" y="293.1194029851"/>
			<point x="86" y="267" type="qcurve" smooth="yes"/>
			<point x="57.6417910448" y="154.3134328358"/>
			<point x="140.9253731343" y="-20"/>
		</contour>
		<contour>
			<point x="554" y="430" type="qcurve"/>
			<point x="591" y="580" type="line" smooth="yes"/>
			<point x="605.1791044776" y="638.2089552239"/>
			<point x="554.8656716418" y="699.4179104478"/>
			<point x="528" y="683" type="qcurve"/>
			<point x="545.9104477612" y="655.3880597015"/>
			<point x="547.9701492537" y="608.3731343284"/>
			<point x="542" y="583" type="qcurve" smooth="yes"/>
			<point x="509" y="453" type="line" smooth="yes"/>
			<point x="507.5074626866" y="447.0298507463"/>
			<point x="509.2686567164" y="439.4776119403"/>
			<point x="513" y="435" type="qcurve" smooth="yes"/>
			<point x="515.9850746269" y="431.2686567164"/>
			<point x="529.7910447761" y="427"/>
			<point x="538" y="427" type="qcurve" smooth="yes"/>
			<point x="543.9701492537" y="427"/>
			<point x="551.0149253731" y="428.5074626866"/>
		</contour>
	</outline>
	<anchor name="top" x="467.7995302052" y="711"/>
	<anchor name="bottom" x="260.2492337099" y="-11"/>
	<guideline x="0" y="0" angle="75.96" identifier="9NI02fuZAK"/>
	<guideline x="50" y="0" angle="75.96" identifier="jrnur1i3FG"/>
	<guideline x="100" y="0" angle="75.96" identifier="Qlckhfx9YH"/>
	<guideline x="150" y="0" angle="75.96" identifier="AVPx1Y8PGH"/>
	<guideline x="200" y="0" angle="75.96" identifier="5xtLUe0bkd"/>
	<guideline x="250" y="0" angle="75.96" identifier="iuEe4mmNqy"/>
	<guideline x="300" y="0" angle="75.96" identifier="Uhfl7phqSL"/>
	<guideline x="350" y="0" angle="75.96" identifier="gNj4K2UJUO"/>
	<guideline x="400" y="0" angle="75.96" identifier="vnCGhYw9Li"/>
	<guideline x="450" y="0" angle="75.96" identifier="1bx9x4diHC"/>
	<guideline x="500" y="0" angle="75.96" identifier="K0UwYPxsK2"/>
	<guideline x="550" y="0" angle="75.96" identifier="ZHiwZMvKcd"/>
	<guideline x="600" y="0" angle="75.96" identifier="YuvcZSFjHA"/>
	<guideline x="0" y="-250" angle="0" identifier="JePGxI3SiP"/>
	<guideline x="0" y="-200" angle="0" identifier="jC9wAXPMcx"/>
	<guideline x="0" y="-150" angle="0" identifier="s4HTsaQzL8"/>
	<guideline x="0" y="-100" angle="0" identifier="86HjYEEFCy"/>
	<guideline x="0" y="-50" angle="0" identifier="rpLNpcywlw"/>
	<guideline x="0" y="0" angle="0" identifier="x5eCwpx6PJ"/>
	<guideline x="0" y="50" angle="0" identifier="TfawCVKjcU"/>
	<guideline x="0" y="100" angle="0" identifier="UP9H5nzfsu"/>
	<guideline x="0" y="150" angle="0" identifier="kAZwWTRFlN"/>
	<guideline x="0" y="200" angle="0" identifier="LbpyPq76Yx"/>
	<guideline x="0" y="250" angle="0" identifier="RjCoB64crD"/>
	<guideline x="0" y="300" angle="0" identifier="4ocaLvGCO5"/>
	<guideline x="0" y="350" angle="0" identifier="ZbvcTe68Kd"/>
	<guideline x="0" y="400" angle="0" identifier="D9AhyYcYLa"/>
	<guideline x="0" y="450" angle="0" identifier="3D3G7k2ddt"/>
	<guideline x="0" y="500" angle="0" identifier="IfJh6afwT7"/>
	<guideline x="0" y="550" angle="0" identifier="pMLSQUnnB9"/>
	<guideline x="0" y="600" angle="0" identifier="4TrxH7HvHi"/>
	<guideline x="0" y="650" angle="0" identifier="pYdBIcDUwq"/>
	<guideline x="0" y="700" angle="0" identifier="mQHAIgs3V7"/>
</glyph>
<glyph name="K" format="2">
	<unicode hex="004B"/>
	<advance width="600"/>
	<outline>
		<contour>
			<point x="194" y="707" type="qcurve"/>
			<point x="191.7611940299" y="680.8805970149"/>
			<point x="180.7164179104" y="627.6119402985"/>
			<point x="174" y="600" type="qcurve" smooth="yes"/>
			<point x="27" y="13" type="line" smooth="yes"/>
			<point x="24.0149253731" y="-0.4328358209"/>
			<point x="44.5820895522" y="-10"/>
			<point x="61" y="-10" type="qcurve" smooth="yes"/>
			<point x="63.2388059701" y="-10"/>
			<point x="68.7611940299" y="-10"/>
			<point x="71" y="-10" type="qcurve"/>
			<point x="237" y="650" type="line" smooth="yes"/>
			<point x="240.7313432836" y="666.4179104478"/>
			<point x="242.7164179104" y="693.0447761194"/>
			<point x="236" y="702" type="qcurve" smooth="yes"/>
			<point x="233.0149253731" y="705.7313432836"/>
			<point x="222.447761194" y="710"/>
			<point x="212" y="710" type="qcurve" smooth="yes"/>
			<point x="207.5223880597" y="710"/>
			<point x="198.4776119403" y="708.4925373134"/>
		</contour>
		<contour>
			<point x="638.4925373134" y="696.223880597"/>
			<point x="628.3432835821" y="710"/>
			<point x="597" y="710" type="qcurve" smooth="yes"/>
			<point x="587" y="710" type="line"/>
			<point x="484.0149253731" y="526.4179104478"/>
			<point x="248.0597014925" y="345.9850746269"/>
			<point x="110" y="293" type="qcurve"/>
			<point x="104.0298507463" y="266.1343283582"/>
			<point x="103.0597014925" y="242.2686567164"/>
			<point x="115" y="246" type="qcurve" smooth="yes"/>
			<point x="264.2537313433" y="296"/>
			<point x="486.6865671642" y="460.4029850746"/>
			<point x="574" y="591" type="qcurve" smooth="yes"/>
			<point x="616.5373134328" y="654.4328358209"/>
			<point x="635.5074626866" y="686.5223880597"/>
			<point x="637" y="691" type="qcurve" smooth="yes"/>
		</contour>
		<contour>
			<point x="282" y="360" type="line"/>
			<point x="262.5970149254" y="348.0597014925"/>
			<point x="244.7611940299" y="321.9701492537"/>
			<point x="247" y="316" type="qcurve" smooth="yes"/>
			<point x="363" y="50" type="line" smooth="yes"/>
			<point x="378.671641791" y="12.6865671642"/>
			<point x="421.1343283582" y="-20"/>
			<point x="448" y="-20" type="qcurve" smooth="yes"/>
			<point x="451" y="-20" type="line" smooth="yes"/>
			<point x="478.6119402985" y="-20"/>
			<point x="500.5223880597" y="5.5820895522"/>
			<point x="505" y="22" type="qcurve" smooth="yes"/>
			<point x="507.2388059701" y="30.2089552239"/>
			<point x="509.2537313433" y="45.2835820896"/>
			<point x="510" y="52" type="qcurve"/>
			<point x="506" y="52" type="line"/>
			<point x="494.8059701493" y="43.0447761194"/>
			<point x="468.6865671642" y="32"/>
			<point x="456" y="32" type="qcurve" smooth="yes"/>
			<point x="441.0746268657" y="32"/>
			<point x="417.447761194" y="52.1194029851"/>
			<point x="407" y="76" type="qcurve" smooth="yes"/>
		</contour>
	</outline>
	<anchor name="bottom" x="260.7499303373" y="-1"/>
</glyph>
<glyph name="c" format="2">
	<unicode hex="0063"/>
	<advance width="600"/>
	<outline>
		<contour>
			<point x="367" y="536" type="qcurve" smooth="yes"/>
			<point x="272.9701492537" y="536"/>
			<point x="109.3134328358" y="400.2537313433"/>
			<point x="72" y="251" type="qcurve" smooth="yes"/>
			<point x="68" y="235" type="line" smooth="yes"/>
			<point x="41.1343283582" y="127.5373134328"/>
			<point x="144.3582089552" y="-10"/>
			<point x="266" y="-10" type="qcurve" smooth="yes"/>
			<point x="272.7164179104" y="-10"/>
			<point x="284.776119403" y="7.3432835821"/>
			<point x="290" y="26" type="qcurve"/>
			<point x="172.0895522388" y="26"/>
			<point x="100.3582089552" y="134.447761194"/>
			<point x="122" y="224" type="qcurve" smooth="yes"/>
			<point x="126" y="242" type="line" smooth="yes"/>
			<point x="152.1194029851" y="353.9402985075"/>
			<point x="275.447761194" y="488"/>
			<point x="365" y="488" type="qcurve" smooth="yes"/>
			<point x="425.447761194" y="488"/>
			<point x="495.1343283582" y="453.5820895522"/>
			<point x="522" y="420" type="qcurve"/>
			<point x="526" y="420" type="line"/>
			<point x="528.2388059701" y="422.9850746269"/>
			<point x="532.5074626866" y="432.0298507463"/>
			<point x="534" y="438" type="qcurve" smooth="yes"/>
			<point x="537.7313432836" y="451.4328358209"/>
			<point x="536.7164179104" y="472.7910447761"/>
			<point x="530" y="481" type="qcurve" smooth="yes"/>
			<point x="509.8507462687" y="504.8805970149"/>
			<point x="428.1940298507" y="536"/>
		</contour>
		<contour>
			<point x="99" y="133" type="qcurve"/>
			<point x="74.3731343284" y="83"/>
			<point x="183.9104477612" y="-10"/>
			<point x="266" y="-10" type="qcurve" smooth="yes"/>
			<point x="324.2089552239" y="-10"/>
			<point x="404.3880597015" y="16.6119402985"/>
			<point x="432" y="39" type="qcurve" smooth="yes"/>
			<point x="443.1940298507" y="47.9552238806"/>
			<point x="457.0149253731" y="74.8208955224"/>
			<point x="460" y="89" type="qcurve" smooth="yes"/>
			<point x="461.4925373134" y="95.7164179104"/>
			<point x="462" y="110.776119403"/>
			<point x="462" y="116" type="qcurve"/>
			<point x="458" y="116" type="line"/>
			<point x="418.447761194" y="77.9402985075"/>
			<point x="324.4626865672" y="38"/>
			<point x="267" y="38" type="qcurve" smooth="yes"/>
			<point x="205.0597014925" y="38"/>
			<point x="128.8507462687" y="85.2388059701"/>
		</contour>
	</outline>
	<anchor name="top" x="392.2874088892" y="537"/>
	<anchor name="bottom" x="255.7499303373" y="-1"/>
</glyph>
<glyph name="l" format="2">
	<unicode hex="006C"/>
	<advance width="600"/>
	<outline>
		<contour>
			<point x="204" y="750" type="qcurve"/>
			<point x="201.7611940299" y="746.2686567164"/>
			<point x="197.4925373134" y="737.223880597"/>
			<point x="196" y="732" type="qcurve" smooth="yes"/>
			<point x="193.0149253731" y="719.3134328358"/>
			<point x="200.8059701493" y="702"/>
			<point x="212" y="702" type="qcurve" smooth="yes"/>
			<point x="226.9253731343" y="702"/>
			<point x="338.2089552239" y="712"/>
			<point x="430" y="712" type="qcurve"/>
			<point x="435.9701492537" y="738.1194029851"/>
			<point x="432.4328358209" y="760"/>
			<point x="419" y="760" type="qcurve" smooth="yes"/>
			<point x="374.9701492537" y="760"/>
			<point x="271.9104477612" y="755.223880597"/>
		</contour>
		<contour>
			<point x="461" y="749" type="qcurve" smooth="yes"/>
			<point x="456.5223880597" y="754.9701492537"/>
			<point x="440.9402985075" y="760"/>
			<point x="429" y="760" type="qcurve" smooth="yes"/>
			<point x="419" y="760" type="line"/>
			<point x="249" y="98" type="line" smooth="yes"/>
			<point x="240.0447761194" y="62.1791044776"/>
			<point x="253.3880597015" y="25"/>
			<point x="281" y="25" type="qcurve"/>
			<point x="463" y="737" type="line" smooth="yes"/>
			<point x="463.7462686567" y="740.7313432836"/>
			<point x="462.4925373134" y="746.7611940299"/>
		</contour>
		<contour>
			<point x="10" y="48" type="line"/>
			<point x="7.0149253731" y="45.0149253731"/>
			<point x="3.4925373134" y="37.223880597"/>
			<point x="2" y="32" type="qcurve" smooth="yes"/>
			<point x="0.5074626866" y="23.7910447761"/>
			<point x="1.2686567164" y="12.223880597"/>
			<point x="5" y="7" type="qcurve" smooth="yes"/>
			<point x="7.9850746269" y="3.2686567164"/>
			<point x="15.5373134328" y="0"/>
			<point x="23" y="0" type="qcurve"/>
			<point x="493" y="0" type="line"/>
			<point x="494.4925373134" y="2.2388059701"/>
			<point x="496" y="6.0149253731"/>
			<point x="496" y="9" type="qcurve"/>
			<point x="496" y="25.4179104478"/>
			<point x="375.8059701493" y="48"/>
			<point x="287" y="48" type="qcurve"/>
		</contour>
	</outline>
	<anchor name="top" x="426.5508537972" y="730"/>
	<anchor name="bottom" x="243.7499303373" y="-1"/>
	<anchor name="dot" x="494.0278650944" y="400"/>
	<anchor name="caronslovak" x="608.0456987548" y="711"/>
</glyph>
<glyph name="t" format="2">
	<unicode hex="0074"/>
	<advance width="600"/>
	<outline>
		<contour>
			<point x="309" y="700" type="qcurve"/>
			<point x="172" y="153" type="line" smooth="yes"/>
			<point x="157.0746268657" y="94.0447761194"/>
			<point x="206.9253731343" y="11.8059701493"/>
			<point x="242" y="23" type="qcurve"/>
			<point x="218.8656716418" y="55.8358208955"/>
			<point x="213.5671641791" y="116.5223880597"/>
			<point x="227" y="171" type="qcurve" smooth="yes"/>
			<point x="354" y="680" type="line" smooth="yes"/>
			<point x="356.9850746269" y="691.9402985075"/>
			<point x="337.6865671642" y="703"/>
			<point x="325" y="703" type="qcurve" smooth="yes"/>
			<point x="321.2686567164" y="703"/>
			<point x="313.4776119403" y="701.4925373134"/>
		</contour>
		<contour>
			<point x="485" y="101" type="qcurve"/>
			<point x="481" y="101" type="line"/>
			<point x="441.447761194" y="66.671641791"/>
			<point x="356.7462686567" y="28"/>
			<point x="306" y="28" type="qcurve" smooth="yes"/>
			<point x="257.4925373134" y="28"/>
			<point x="199.5223880597" y="89.4179104478"/>
			<point x="204" y="173" type="qcurve"/>
			<point x="190.5671641791" y="173"/>
			<point x="174.2388059701" y="161.2089552239"/>
			<point x="172" y="153" type="qcurve" smooth="yes"/>
			<point x="154.0895522388" y="78.3731343284"/>
			<point x="217.447761194" y="-20"/>
			<point x="307" y="-20" type="qcurve" smooth="yes"/>
			<point x="313" y="-20" type="line" smooth="yes"/>
			<point x="355.5373134328" y="-20"/>
			<point x="433.1044776119" y="4.5970149254"/>
			<point x="454" y="24" type="qcurve" smooth="yes"/>
			<point x="464.447761194" y="34.447761194"/>
			<point x="477.5223880597" y="62.5820895522"/>
			<point x="482" y="79" type="qcurve"/>
			<point x="483.4925373134" y="84.223880597"/>
			<point x="485" y="95.776119403"/>
		</contour>
		<contour>
			<point x="141" y="526" type="line"/>
			<point x="140.2537313433" y="523.7611940299"/>
			<point x="138.7462686567" y="517.9850746269"/>
			<point x="138" y="515" type="qcurve" smooth="yes"/>
			<point x="135.0149253731" y="503.8059701493"/>
			<point x="136.5223880597" y="487.4776119403"/>
			<point x="141" y="483" type="qcurve" smooth="yes"/>
			<point x="143.2388059701" y="480.7611940299"/>
			<point x="150.2686567164" y="478"/>
			<point x="154" y="478" type="qcurve" smooth="yes"/>
			<point x="578" y="478" type="line"/>
			<point x="578.7462686567" y="480.9850746269"/>
			<point x="580.2537313433" y="487.0149253731"/>
			<point x="581" y="490" type="qcurve" smooth="yes"/>
			<point x="584.7313432836" y="505.671641791"/>
			<point x="576.4328358209" y="526"/>
			<point x="563" y="526" type="qcurve"/>
		</contour>
	</outline>
	<anchor name="bottom" x="289.7499303373" y="-1"/>
	<anchor name="caronslovak" x="544.0487639151" y="700"/>
	<guideline x="201" y="162" angle="76.0158199248" identifier="7KTSFpmz6U"/>
	<guideline x="146" y="144" angle="75.9637565321" identifier="L0Bf8zeofB"/>
</glyph>
<glyph name="u" format="2">
	<unicode hex="0075"/>
	<advance width="600"/>
	<outline>
		<contour>
			<point x="517" y="531" type="qcurve"/>
			<point x="399" y="67" type="line" smooth="yes"/>
			<point x="393.776119403" y="46.8507462687"/>
			<point x="390.2835820896" y="14.9552238806"/>
			<point x="397" y="6" type="qcurve" smooth="yes"/>
			<point x="402.9701492537" y="-1.4626865672"/>
			<point x="417.5373134328" y="-6"/>
			<point x="425" y="-6" type="qcurve" smooth="yes"/>
			<point x="428.7313432836" y="-6"/>
			<point x="438.2686567164" y="-4.4925373134"/>
			<point x="442" y="-3" type="qcurve"/>
			<point x="440.5074626866" y="17.1492537313"/>
			<point x="444.2985074627" y="48.9253731343"/>
			<point x="454" y="84" type="qcurve" smooth="yes"/>
			<point x="561" y="508" type="line" smooth="yes"/>
			<point x="564.7313432836" y="521.4328358209"/>
			<point x="543.4179104478" y="531"/>
			<point x="527" y="531" type="qcurve" smooth="yes"/>
			<point x="524.7611940299" y="531"/>
			<point x="519.2388059701" y="531"/>
		</contour>
		<contour>
			<point x="168" y="-11" type="qcurve" smooth="yes"/>
			<point x="229.9402985075" y="-11"/>
			<point x="378.0597014925" y="103.6865671642"/>
			<point x="440" y="191" type="qcurve" smooth="yes"/>
			<point x="456.4179104478" y="215.6268656716"/>
			<point x="471.4776119403" y="268.6567164179"/>
			<point x="467" y="300" type="qcurve"/>
			<point x="405.0597014925" y="200.7462686567"/>
			<point x="240.6417910448" y="37"/>
			<point x="169" y="37" type="qcurve" smooth="yes"/>
			<point x="129.447761194" y="37"/>
			<point x="101.7910447761" y="94.2985074627"/>
			<point x="110" y="154" type="qcurve"/>
			<point x="82.3880597015" y="152.5074626866"/>
			<point x="67.2388059701" y="137.2089552239"/>
			<point x="65" y="129" type="qcurve" smooth="yes"/>
			<point x="51.5671641791" y="76.7611940299"/>
			<point x="103.0746268657" y="-11"/>
		</contour>
		<contour>
			<point x="155" y="526" type="qcurve"/>
			<point x="153.5074626866" y="493.9104477612"/>
			<point x="142.9552238806" y="437.0746268657"/>
			<point x="134" y="402" type="qcurve" smooth="yes"/>
			<point x="65" y="129" type="line"/>
			<point x="59.0298507463" y="105.1194029851"/>
			<point x="72.6119402985" y="81"/>
			<point x="95" y="81" type="qcurve"/>
			<point x="131.5671641791" y="198.1641791045"/>
			<point x="163.5970149254" y="314.8805970149"/>
			<point x="183" y="391" type="qcurve" smooth="yes"/>
			<point x="185" y="396" type="line" smooth="yes"/>
			<point x="204.4029850746" y="474.3582089552"/>
			<point x="186.4029850746" y="528"/>
			<point x="167" y="528" type="qcurve" smooth="yes"/>
			<point x="163.2686567164" y="528"/>
			<point x="157.2388059701" y="526.7462686567"/>
		</contour>
	</outline>
	<anchor name="top" x="368.2874088892" y="537"/>
	<anchor name="bottom" x="233.7499303373" y="-1"/>
	<anchor name="ogonek" x="443.9997213491" y="-1"/>
</glyph>
<glyph name="braceright" format="2">
	<unicode hex="007D"/>
	<advance width="600"/>
	<outline>
		<contour>
			<point x="56.4731101839" y="-123" type="qcurve" smooth="yes"/>
			<point x="39.6187029747" y="-123"/>
			<point x="15.4321653402" y="-119.7858850008"/>
			<point x="1.4736674858" y="-115" type="qcurve"/>
			<point x="-2.5263325142" y="-115" type="line"/>
			<point x="-4.2056969274" y="-118.7313432836"/>
			<point x="-7.2845635703" y="-126.0298507463"/>
			<point x="-8.7775167807" y="-132" type="qcurve" smooth="yes"/>
			<point x="-12.8831381092" y="-148.4179104478"/>
			<point x="3.4042285959" y="-172"/>
			<point x="31.2196967099" y="-172" type="qcurve" smooth="yes"/>
			<point x="36.2196967099" y="-172" type="line" smooth="yes"/>
			<point x="128.7570101427" y="-172"/>
			<point x="264.0444434379" y="-116.7164179104"/>
			<point x="278.2274989363" y="-60" type="qcurve" smooth="yes"/>
			<point x="279.2277775872" y="-56" type="line" smooth="yes"/>
			<point x="281.0673092214" y="-48.6439232409"/>
			<point x="264.6659469944" y="-33"/>
			<point x="251.9793798302" y="-33" type="qcurve"/>
			<point x="229.305090378" y="-84.0091560334"/>
			<point x="126.6223639153" y="-123"/>
		</contour>
		<contour>
			<point x="215.2403168797" y="124" type="qcurve" smooth="yes"/>
			<point x="199.8346537522" y="62.3945139169"/>
			<point x="235.095083704" y="-32.5373134328"/>
			<point x="228.2274989363" y="-60" type="qcurve" smooth="yes"/>
			<point x="225.0083185765" y="-72.8731343284"/>
			<point x="212.067754472" y="-93.0718007402"/>
			<point x="201.7242944505" y="-106" type="qcurve"/>
			<point x="224.1123541519" y="-106"/>
			<point x="270.7160780967" y="-90.0373134328"/>
			<point x="278.2274989363" y="-60" type="qcurve" smooth="yes"/>
			<point x="279.2277775872" y="-56" type="line" smooth="yes"/>
			<point x="290.7366203538" y="-9.9774531597"/>
			<point x="251.7694318276" y="70.131470308"/>
			<point x="266.9908045189" y="131" type="qcurve" smooth="yes"/>
			<point x="281.4616740605" y="188.867353374"/>
			<point x="388.2134528573" y="274"/>
			<point x="480.7507662901" y="274" type="qcurve" smooth="yes"/>
			<point x="485.7507662901" y="274" type="line" smooth="yes"/>
			<point x="488.2514629175" y="284" type="line" smooth="yes"/>
			<point x="491.9838459434" y="298.9253731343"/>
			<point x="487.9810950771" y="313"/>
			<point x="483.5034831368" y="313" type="qcurve"/>
			<point x="477.5034831368" y="313" type="line" smooth="yes"/>
			<point x="385.7124383607" y="313"/>
			<point x="238.8794044805" y="218.5300095268"/>
		</contour>
		<contour>
			<point x="302.7646988373" y="474" type="qcurve" smooth="yes"/>
			<point x="279.250685774" y="379.9701492537"/>
			<point x="377.9602788159" y="282"/>
			<point x="469.751323592" y="282" type="qcurve"/>
			<point x="474.2289355323" y="282"/>
			<point x="483.2737116517" y="282"/>
			<point x="487.751323592" y="282" type="qcurve"/>
			<point x="489.7518808939" y="290" type="line" smooth="yes"/>
			<point x="493.1110256172" y="303.4328358209"/>
			<point x="489.1945479344" y="324"/>
			<point x="477.2542494269" y="324" type="qcurve" smooth="yes"/>
			<point x="475.2542494269" y="324" type="line" smooth="yes"/>
			<point x="396.8960404717" y="324"/>
			<point x="336.8311556997" y="410.2835820896"/>
			<point x="351.0142111981" y="467" type="qcurve" smooth="yes"/>
			<point x="366.3169816044" y="528.1940298507"/>
			<point x="446.4571990631" y="612.7313432836"/>
			<point x="458.0275864434" y="659" type="qcurve" smooth="yes"/>
			<point x="458.5277257689" y="661" type="line" smooth="yes"/>
			<point x="467.6720641824" y="697.5671641791"/>
			<point x="422.4268706192" y="713"/>
			<point x="401.5313482312" y="713" type="qcurve"/>
			<point x="410.858770672" y="699.5671641791"/>
			<point x="411.9465886206" y="674.671641791"/>
			<point x="408.0275864434" y="659" type="qcurve" smooth="yes"/>
			<point x="401.1226778455" y="631.3880597015"/>
			<point x="318.2540883948" y="535.9402985075"/>
		</contour>
		<contour>
			<point x="261.2818358703" y="720" type="qcurve" smooth="yes"/>
			<point x="353.0728806464" y="720"/>
			<point x="425.5776233671" y="680.9552238806"/>
			<point x="422.7750089222" y="622" type="qcurve"/>
			<point x="435.2751648835" y="624.2388059701"/>
			<point x="454.8550608714" y="646.3134328358"/>
			<point x="458.0275864434" y="659" type="qcurve" smooth="yes"/>
			<point x="458.5277257689" y="661" type="line" smooth="yes"/>
			<point x="474.5769727803" y="725.1791044776"/>
			<point x="358.0539757235" y="770"/>
			<point x="261.7853190071" y="770" type="qcurve" smooth="yes"/>
			<point x="255.7853190071" y="770" type="line" smooth="yes"/>
			<point x="234.889796619" y="770"/>
			<point x="209.8804104092" y="742.3880597015"/>
			<point x="204.2818358703" y="720" type="qcurve"/>
			<point x="202.2812785684" y="712" type="line"/>
			<point x="206.2812785684" y="712" type="line"/>
			<point x="219.1546728324" y="715.7313432836"/>
			<point x="244.8639254225" y="720"/>
		</contour>
	</outline>
</glyph>
<glyph name="threesuperior" format="2">
	<unicode hex="00B3"/>
	<advance width="600"/>
	<outline>
		<contour>
			<point x="396.5277257689" y="661" type="qcurve" smooth="yes"/>
			<point x="433.8411586047" y="661"/>
			<point x="467.8131687053" y="634.1492537313"/>
			<point x="462.7744516203" y="614" type="qcurve" smooth="yes"/>
			<point x="461.2814984099" y="608.0298507463"/>
			<point x="457.9525621042" y="599.7313432836"/>
			<point x="456.2731976911" y="596" type="qcurve"/>
			<point x="472.1314586334" y="596.7462686567"/>
			<point x="514.6550153635" y="613.5223880597"/>
			<point x="515.7747302712" y="618" type="qcurve" smooth="yes"/>
			<point x="517.5252179104" y="625" type="line" smooth="yes"/>
			<point x="526.2963180213" y="660.0746268657"/>
			<point x="469.2252387564" y="711"/>
			<point x="408.0312089057" y="711" type="qcurve" smooth="yes"/>
			<point x="372.95658204" y="711"/>
			<point x="313.2537087249" y="691.1791044776"/>
			<point x="295.5288403727" y="677" type="qcurve" smooth="yes"/>
			<point x="285.2670744845" y="668.7910447761"/>
			<point x="274.2621692722" y="651.9402985075"/>
			<point x="271.2762628514" y="640" type="qcurve" smooth="yes"/>
			<point x="269.2234521872" y="631.7910447761"/>
			<point x="268.4054988437" y="620.4626865672"/>
			<point x="269.5243819576" y="613" type="qcurve"/>
			<point x="271.5243819576" y="613" type="line"/>
			<point x="304.175455238" y="639.1194029851"/>
			<point x="362.1993675599" y="661"/>
		</contour>
		<contour>
			<point x="321.7683212995" y="526" type="qcurve" smooth="yes"/>
			<point x="410.5742914488" y="526"/>
			<point x="507.1902493117" y="583.671641791"/>
			<point x="515.7747302712" y="618" type="qcurve" smooth="yes"/>
			<point x="520.2535899023" y="635.9104477612"/>
			<point x="488.4418352106" y="660"/>
			<point x="471.2776561062" y="660" type="qcurve"/>
			<point x="472.7697775227" y="654.0298507463"/>
			<point x="471.7614726448" y="641.9402985075"/>
			<point x="468.7755662241" y="630" type="qcurve" smooth="yes"/>
			<point x="460.1910852645" y="595.671641791"/>
			<point x="376.1924012863" y="561"/>
			<point x="310.5207594953" y="561" type="qcurve"/>
			<point x="307.9085072741" y="556.5223880597"/>
			<point x="304.1989386022" y="547.7164179104"/>
			<point x="302.5193662406" y="541" type="qcurve" smooth="yes"/>
			<point x="300.279936425" y="532.0447761194"/>
			<point x="318.036978016" y="526"/>
		</contour>
		<contour>
			<point x="325.0172763585" y="511" type="qcurve" smooth="yes"/>
			<point x="387.7038435227" y="511"/>
			<point x="436.6084960521" y="481.3731343284"/>
			<point x="430.263444908" y="456" type="qcurve" smooth="yes"/>
			<point x="428.3972533951" y="448.5373134328"/>
			<point x="423.7434625201" y="436.9701492537"/>
			<point x="420.0117033396" y="431" type="qcurve"/>
			<point x="448.3699122949" y="431"/>
			<point x="478.4009857781" y="448.552238806"/>
			<point x="481.0136538962" y="459" type="qcurve" smooth="yes"/>
			<point x="495.1967093947" y="515.7164179104"/>
			<point x="392.36334645" y="551"/>
			<point x="311.0200628679" y="551" type="qcurve"/>
			<point x="309.1540793035" y="546.5223880597"/>
			<point x="303.2658428458" y="543.9850746269"/>
			<point x="302.5193662406" y="541" type="qcurve" smooth="yes"/>
			<point x="299.9066981224" y="530.552238806"/>
			<point x="305.6142912839" y="511"/>
		</contour>
		<contour>
			<point x="328.010031434" y="407" type="qcurve" smooth="yes"/>
			<point x="292.1891359116" y="407"/>
			<point x="243.7394098965" y="432.3582089552"/>
			<point x="226.7633055826" y="454" type="qcurve"/>
			<point x="224.7633055826" y="454" type="line"/>
			<point x="217.4866143213" y="445.7910447761"/>
			<point x="209.6869860164" y="429.7014925373"/>
			<point x="207.2609370495" y="420" type="qcurve" smooth="yes"/>
			<point x="204.6482689314" y="409.552238806"/>
			<point x="205.7817904496" y="397.9701492537"/>
			<point x="210.2589864929" y="392" type="qcurve" smooth="yes"/>
			<point x="219.9596472364" y="380.0597014925"/>
			<point x="277.4468468046" y="357"/>
			<point x="315.5065482972" y="357" type="qcurve" smooth="yes"/>
			<point x="383.4169960584" y="357"/>
			<point x="470.6152347861" y="417.4179104478"/>
			<point x="479.0130965943" y="451" type="qcurve" smooth="yes"/>
			<point x="481.0136538962" y="459" type="line" smooth="yes"/>
			<point x="484.7460369221" y="473.9253731343"/>
			<point x="454.9223905335" y="488"/>
			<point x="436.2656741156" y="488" type="qcurve"/>
			<point x="436.0788470158" y="484.2686567164"/>
			<point x="435.007303734" y="474.9701492537"/>
			<point x="433.5143505236" y="469" type="qcurve" smooth="yes"/>
			<point x="426.4228227744" y="440.6417910448"/>
			<point x="371.2936135235" y="407"/>
		</contour>
	</outline>
</glyph>
<glyph name="cedilla" format="2">
	<unicode hex="00B8"/>
	<advance width="600"/>
	<outline>
		<contour>
			<point x="295.7231798467" y="-122" type="qcurve" smooth="yes"/>
			<point x="304.8675182602" y="-85.4328358209"/>
			<point x="274.2435222773" y="-44.2388059701"/>
			<point x="239.7287528656" y="-42" type="qcurve"/>
			<point x="244.0209933453" y="-24.8358208955"/>
			<point x="257.4708215471" y="4.8358208955"/>
			<point x="267.7332112806" y="22" type="qcurve"/>
			<point x="249.8229714679" y="24.9850746269"/>
			<point x="226.4604728278" y="16.9701492537"/>
			<point x="221.9824449906" y="11" type="qcurve" smooth="yes"/>
			<point x="211.9068823568" y="-2.4328358209"/>
			<point x="193.952974498" y="-37.1044776119"/>
			<point x="188.7276382618" y="-58" type="qcurve" smooth="yes"/>
			<point x="186.4882084462" y="-66.9552238806"/>
			<point x="198.2858071741" y="-80"/>
			<point x="210.2261056816" y="-80" type="qcurve" smooth="yes"/>
			<point x="234.1067026965" y="-80"/>
			<point x="251.7618969317" y="-101.8507462687"/>
			<point x="246.7231798467" y="-122" type="qcurve" smooth="yes"/>
			<point x="240.5647478539" y="-146.6268656716"/>
			<point x="200.0552389545" y="-176"/>
			<point x="167.2194180589" y="-176" type="qcurve" smooth="yes"/>
			<point x="143.338821044" y="-176"/>
			<point x="116.6680900672" y="-162.9253731343"/>
			<point x="106.2213686155" y="-148" type="qcurve"/>
			<point x="102.2213686155" y="-148" type="line"/>
			<point x="97.1834833244" y="-156.2089552239"/>
			<point x="92.0856095719" y="-168.5373134328"/>
			<point x="90.2194180589" y="-176" type="qcurve" smooth="yes"/>
			<point x="85.7405584278" y="-193.9104477612"/>
			<point x="116.4064424178" y="-223"/>
			<point x="154.4661439104" y="-223" type="qcurve" smooth="yes"/>
			<point x="210.4362931641" y="-223"/>
			<point x="284.7126499202" y="-166.0298507463"/>
		</contour>
	</outline>
</glyph>
<glyph name="Eacute" format="2">
	<unicode hex="00C9"/>
	<advance width="600"/>
	<outline>
		<contour>
			<point x="159.2804426156" y="700" type="line"/>
			<point x="158.7205851617" y="697.7611940299"/>
			<point x="157.3396034421" y="692.2388059701"/>
			<point x="156.7797459882" y="690" type="qcurve" smooth="yes"/>
			<point x="153.7938395675" y="678.0597014925"/>
			<point x="154.5501117491" y="660.9701492537"/>
			<point x="159.0273077925" y="655" type="qcurve" smooth="yes"/>
			<point x="160.7062563087" y="652.7611940299"/>
			<point x="166.0456161952" y="650"/>
			<point x="169.7769594788" y="650" type="qcurve" smooth="yes"/>
			<point x="623.7769594788" y="650" type="line"/>
			<point x="626.2025925487" y="653.7313432836"/>
			<point x="629.9084288375" y="662.5223880597"/>
			<point x="631.0281437453" y="667" type="qcurve" smooth="yes"/>
			<point x="632.707716107" y="673.7164179104"/>
			<point x="632.5072903453" y="689.0298507463"/>
			<point x="628.0300943019" y="695" type="qcurve" smooth="yes"/>
			<point x="626.3511457856" y="697.2388059701"/>
			<point x="621.0117858992" y="700"/>
			<point x="617.2804426156" y="700" type="qcurve" smooth="yes"/>
		</contour>
		<contour>
			<point x="88.482862967" y="17" type="qcurve"/>
			<point x="234.7736156675" y="602" type="line" smooth="yes"/>
			<point x="243.9179540809" y="638.5671641791"/>
			<point x="230.6406413457" y="675"/>
			<point x="203.0287010472" y="675" type="qcurve"/>
			<point x="44.2344652099" y="40" type="line"/>
			<point x="40.8753204866" y="26.5671641791"/>
			<point x="64.602265952" y="17"/>
		</contour>
		<contour>
			<point x="46.7351618373" y="50" type="line"/>
			<point x="44.2344652099" y="40" type="line" smooth="yes"/>
			<point x="40.6887013353" y="25.8208955224"/>
			<point x="52.291380193" y="0"/>
			<point x="64.2316787005" y="0" type="qcurve" smooth="yes"/>
			<point x="464.2316787005" y="0" type="line"/>
			<point x="464.7915361543" y="2.2388059701"/>
			<point x="466.1725178739" y="7.7611940299"/>
			<point x="466.7323753278" y="10" type="qcurve" smooth="yes"/>
			<point x="471.7710924128" y="30.1492537313"/>
			<point x="464.929191688" y="50"/>
			<point x="453.7351618373" y="50" type="qcurve"/>
		</contour>
		<contour>
			<point x="141.756060658" y="350" type="line"/>
			<point x="135.0377712114" y="323.1343283582"/>
			<point x="138.8197417003" y="300"/>
			<point x="152.2525775212" y="300" type="qcurve" smooth="yes"/>
			<point x="459.2525775212" y="300" type="line"/>
			<point x="459.8124349751" y="302.2388059701"/>
			<point x="461.1934166947" y="307.7611940299"/>
			<point x="461.7532741486" y="310" type="qcurve" smooth="yes"/>
			<point x="464.7391805693" y="321.9402985075"/>
			<point x="463.9829083877" y="339.0298507463"/>
			<point x="459.5057123443" y="345" type="qcurve" smooth="yes"/>
			<point x="457.8267638281" y="347.2388059701"/>
			<point x="452.4874039416" y="350"/>
			<point x="448.756060658" y="350" type="qcurve" smooth="yes"/>
		</contour>
		<contour>
			<point x="406.3236971361" y="785.2835820896"/>
			<point x="420.8196673867" y="781"/>
			<point x="427.5360852972" y="781" type="qcurve" smooth="yes"/>
			<point x="434.9987718644" y="781"/>
			<point x="456.3461371829" y="786.0298507463"/>
			<point x="468.2868515873" y="792" type="qcurve"/>
			<point x="507.8403380841" y="809.9104477612"/>
			<point x="576.7584692491" y="866.6417910448"/>
			<point x="595.0440268491" y="895" type="qcurve" smooth="yes"/>
			<point x="599.7086738376" y="901.7164179104"/>
			<point x="599.0641651983" y="916.2686567164"/>
			<point x="590.2957684175" y="920" type="qcurve" smooth="yes"/>
			<point x="582.2736402934" y="923.7313432836"/>
			<point x="568.2439475879" y="926"/>
			<point x="557.7961863939" y="926" type="qcurve"/>
			<point x="537.2711989784" y="888.6865671642"/>
			<point x="456.6994308203" y="822.5970149254"/>
			<point x="401.2868515873" y="792" type="qcurve"/>
		</contour>
	</outline>
</glyph>
<glyph name="Odieresis" format="2">
	<unicode hex="00D6"/>
	<advance width="600"/>
	<outline>
		<contour>
			<point x="414.2818358703" y="720" type="qcurve" smooth="yes"/>
			<point x="298.6101940793" y="720"/>
			<point x="126.3006588175" y="508.1343283582"/>
			<point x="83.005015717" y="335" type="qcurve" smooth="yes"/>
			<point x="75.5029258349" y="305" type="line" smooth="yes"/>
			<point x="38.3657147271" y="156.4925373134"/>
			<point x="108.3347630577" y="-20"/>
			<point x="229.2302854457" y="-20" type="qcurve" smooth="yes"/>
			<point x="237.4392406696" y="-20"/>
			<point x="251.3732306045" y="-3.4328358209"/>
			<point x="254.7323753278" y="10" type="qcurve"/>
			<point x="147.829754163" y="15.223880597"/>
			<point x="93.8485853922" y="178.4179104478"/>
			<point x="127.2534134741" y="312" type="qcurve" smooth="yes"/>
			<point x="133.005015717" y="335" type="line" smooth="yes"/>
			<point x="171.0753225813" y="487.2388059701"/>
			<point x="313.0171587037" y="670"/>
			<point x="410.7783527335" y="670" type="qcurve" smooth="yes"/>
			<point x="438.390293032" y="670"/>
			<point x="493.2326138127" y="656.1791044776"/>
			<point x="521.7764021769" y="642" type="qcurve"/>
			<point x="547.8972608012" y="662.8955223881"/>
			<point x="473.4003060196" y="720"/>
		</contour>
		<contour>
			<point x="229.2302854457" y="-20" type="qcurve" smooth="yes"/>
			<point x="344.9019272368" y="-20"/>
			<point x="511.6927924977" y="169.7971410553"/>
			<point x="550.5043190896" y="325" type="qcurve" smooth="yes"/>
			<point x="558.0064089717" y="355" type="line" smooth="yes"/>
			<point x="599.6435072206" y="521.501997057"/>
			<point x="535.1773582584" y="720"/>
			<point x="414.2818358703" y="720" type="qcurve" smooth="yes"/>
			<point x="406.0728806464" y="720"/>
			<point x="392.1388907115" y="703.4328358209"/>
			<point x="388.7797459882" y="690" type="qcurve"/>
			<point x="495.6988091691" y="684.7753159509"/>
			<point x="544.1272427162" y="499.4430857759"/>
			<point x="506.2559213326" y="348" type="qcurve" smooth="yes"/>
			<point x="500.5043190896" y="325" type="line" smooth="yes"/>
			<point x="466.9312278385" y="190.7450452655"/>
			<point x="330.4949626124" y="30"/>
			<point x="232.7337685825" y="30" type="qcurve" smooth="yes"/>
			<point x="205.121828284" y="30"/>
			<point x="150.2795075033" y="43.8208955224"/>
			<point x="121.7357191391" y="58" type="qcurve"/>
			<point x="97.4806361308" y="38.5970149254"/>
			<point x="170.1118152965" y="-20"/>
		</contour>
		<contour>
			<point x="375.7878268656" y="806" type="qcurve"/>
			<point x="388.7914493279" y="858" type="line" smooth="yes"/>
			<point x="392.8970706564" y="874.4179104478"/>
			<point x="371.4244845385" y="893"/>
			<point x="347.5438875236" y="893" type="qcurve" smooth="yes"/>
			<point x="338.588663643" y="893"/>
			<point x="323.1370660917" y="891.4925373134"/>
			<point x="316.7936785354" y="890" type="qcurve"/>
			<point x="303.7900560731" y="838" type="line" smooth="yes"/>
			<point x="299.6844347446" y="821.5820895522"/>
			<point x="321.9032895192" y="803"/>
			<point x="345.0376178774" y="803" type="qcurve" smooth="yes"/>
			<point x="353.992841758" y="803"/>
			<point x="369.4444393093" y="804.5074626866"/>
		</contour>
		<contour>
			<point x="575.7878268656" y="806" type="qcurve"/>
			<point x="588.7914493279" y="858" type="line" smooth="yes"/>
			<point x="592.8970706564" y="874.4179104478"/>
			<point x="571.4244845385" y="893"/>
			<point x="547.5438875236" y="893" type="qcurve" smooth="yes"/>
			<point x="538.588663643" y="893"/>
			<point x="523.1370660917" y="891.4925373134"/>
			<point x="516.7936785354" y="890" type="qcurve"/>
			<point x="503.7900560731" y="838" type="line" smooth="yes"/>
			<point x="499.6844347446" y="821.5820895522"/>
			<point x="521.9032895192" y="803"/>
			<point x="545.0376178774" y="803" type="qcurve" smooth="yes"/>
			<point x="553.992841758" y="803"/>
			<point x="569.4444393093" y="804.5074626866"/>
		</contour>
	</outline>
</glyph>
<glyph name="idieresis" format="2">
	<unicode hex="00EF"/>
	<advance width="600"/>
	<outline>
		<contour>
			<point x="143.7683212995" y="526" type="qcurve"/>
			<point x="141.3426882296" y="522.2686567164"/>
			<point x="137.5734014294" y="513.223880597"/>
			<point x="136.2670673703" y="508" type="qcurve" smooth="yes"/>
			<point x="132.7213034957" y="493.8208955224"/>
			<point x="140.070808312" y="476"/>
			<point x="151.2648381627" y="476" type="qcurve" smooth="yes"/>
			<point x="166.1902112971" y="476"/>
			<point x="276.974490014" y="486"/>
			<point x="368.7655347901" y="486" type="qcurve"/>
			<point x="375.4838242367" y="512.8656716418"/>
			<point x="371.7018537478" y="536"/>
			<point x="358.2690179269" y="536" type="qcurve" smooth="yes"/>
			<point x="314.2391671806" y="536"/>
			<point x="211.4925658064" y="531.223880597"/>
		</contour>
		<contour>
			<point x="400.5182516368" y="525" type="qcurve" smooth="yes"/>
			<point x="396.0410555934" y="530.9701492537"/>
			<point x="380.2093164344" y="536"/>
			<point x="368.2690179269" y="536" type="qcurve" smooth="yes"/>
			<point x="358.2690179269" y="536" type="line"/>
			<point x="248.7385056486" y="98" type="line" smooth="yes"/>
			<point x="239.7807863864" y="62.1791044776"/>
			<point x="252.8714799703" y="25"/>
			<point x="280.4834202689" y="25" type="qcurve"/>
			<point x="402.517415684" y="513" type="line" smooth="yes"/>
			<point x="403.4505114405" y="516.7313432836"/>
			<point x="402.1972001531" y="522.7611940299"/>
		</contour>
		<contour>
			<point x="9.7351618373" y="50" type="line"/>
			<point x="7.4961479186" y="47.0149253731"/>
			<point x="4.0403812925" y="39.223880597"/>
			<point x="2.7340472335" y="34" type="qcurve" smooth="yes"/>
			<point x="0.6812365692" y="25.7910447761"/>
			<point x="1.0646198017" y="12.223880597"/>
			<point x="4.9821663396" y="7" type="qcurve" smooth="yes"/>
			<point x="7.7804138667" y="3.2686567164"/>
			<point x="15.7689921333" y="0"/>
			<point x="23.2316787005" y="0" type="qcurve" smooth="yes"/>
			<point x="494.2316787005" y="0" type="line"/>
			<point x="494.604917003" y="1.4925373134"/>
			<point x="495.8589976998" y="6.5074626866"/>
			<point x="496.2322360023" y="8" type="qcurve" smooth="yes"/>
			<point x="500.5244764821" y="25.1641791045"/>
			<point x="375.5411319865" y="50"/>
			<point x="286.7351618373" y="50" type="qcurve" smooth="yes"/>
		</contour>
		<contour>
			<point x="353.7783527335" y="670" type="qcurve"/>
			<point x="366.7819751958" y="722" type="line" smooth="yes"/>
			<point x="370.8875965243" y="738.4179104478"/>
			<point x="349.4150104065" y="757"/>
			<point x="325.5344133915" y="757" type="qcurve" smooth="yes"/>
			<point x="316.5791895109" y="757"/>
			<point x="301.1275919596" y="755.4925373134"/>
			<point x="294.7842044033" y="754" type="qcurve"/>
			<point x="281.7805819411" y="702" type="line" smooth="yes"/>
			<point x="277.6749606126" y="685.5820895522"/>
			<point x="299.8938153871" y="667"/>
			<point x="323.0281437453" y="667" type="qcurve" smooth="yes"/>
			<point x="331.9833676259" y="667"/>
			<point x="347.4349651772" y="668.5074626866"/>
		</contour>
		<contour>
			<point x="553.7783527335" y="670" type="qcurve"/>
			<point x="566.7819751958" y="722" type="line" smooth="yes"/>
			<point x="570.8875965243" y="738.4179104478"/>
			<point x="549.4150104065" y="757"/>
			<point x="525.5344133915" y="757" type="qcurve" smooth="yes"/>
			<point x="516.5791895109" y="757"/>
			<point x="501.1275919596" y="755.4925373134"/>
			<point x="494.7842044033" y="754" type="qcurve"/>
			<point x="481.7805819411" y="702" type="line" smooth="yes"/>
			<point x="477.6749606126" y="685.5820895522"/>
			<point x="499.8938153871" y="667"/>
			<point x="523.0281437453" y="667" type="qcurve" smooth="yes"/>
			<point x="531.9833676259" y="667"/>
			<point x="547.4349651772" y="668.5074626866"/>
		</contour>
	</outline>
</glyph>
<glyph name="ucircumflex" format="2">
	<unicode hex="00FB"/>
	<advance width="600"/>
	<outline>
		<contour>
			<point x="517.0186696132" y="531" type="qcurve"/>
			<point x="400.9863461038" y="67" type="line" smooth="yes"/>
			<point x="395.9476290188" y="46.8507462687"/>
			<point x="393.0163026118" y="14.9552238806"/>
			<point x="399.7320966769" y="6" type="qcurve" smooth="yes"/>
			<point x="405.3285917311" y="-1.4626865672"/>
			<point x="420.2685741569" y="-6"/>
			<point x="427.731260724" y="-6" type="qcurve" smooth="yes"/>
			<point x="431.4626040076" y="-6"/>
			<point x="440.3768881261" y="-4.4925373134"/>
			<point x="444.4814697123" y="-3" type="qcurve"/>
			<point x="442.8037688868" y="17.1492537313"/>
			<point x="446.4664302594" y="48.9253731343"/>
			<point x="455.2375303703" y="84" type="qcurve" smooth="yes"/>
			<point x="561.2670673703" y="508" type="line" smooth="yes"/>
			<point x="564.6262120936" y="521.4328358209"/>
			<point x="543.436580061" y="531"/>
			<point x="527.0186696132" y="531" type="qcurve" smooth="yes"/>
			<point x="524.7798636431" y="531"/>
			<point x="519.2574755834" y="531"/>
		</contour>
		<contour>
			<point x="52.4942288462" y="73.0298507463"/>
			<point x="97.5256885298" y="-11"/>
			<point x="156.4809124104" y="-11" type="qcurve" smooth="yes"/>
			<point x="222.8988228581" y="-11"/>
			<point x="374.6347724921" y="108.6865671642"/>
			<point x="441.2453325967" y="196" type="qcurve" smooth="yes"/>
			<point x="458.0379369863" y="218.3880597015"/>
			<point x="472.2279706514" y="268.1492537313"/>
			<point x="467.7524381958" y="298" type="qcurve"/>
			<point x="407.1111955511" y="198.7462686567"/>
			<point x="236.8948433084" y="39"/>
			<point x="168.9843955472" y="39" type="qcurve" smooth="yes"/>
			<point x="131.6709627113" y="39"/>
			<point x="105.0967520345" y="98.5373134328"/>
			<point x="114.2425460873" y="156" type="qcurve"/>
			<point x="85.5110988294" y="154.5074626866"/>
			<point x="68.7300950089" y="137.9552238806"/>
			<point x="66.4906651934" y="129" type="qcurve" smooth="yes"/>
		</contour>
		<contour>
			<point x="154.7683212995" y="526" type="qcurve"/>
			<point x="153.4601157043" y="493.9104477612"/>
			<point x="143.5307832312" y="437.0746268657"/>
			<point x="134.7596831203" y="402" type="qcurve" smooth="yes"/>
			<point x="66.4906651934" y="129" type="line"/>
			<point x="60.1456140493" y="103.6268656716"/>
			<point x="74.5802566505" y="76"/>
			<point x="93.2369730684" y="76" type="qcurve"/>
			<point x="129.8124551861" y="195.4029850746"/>
			<point x="164.6005250955" y="313.3880597015"/>
			<point x="184.0089168302" y="391" type="qcurve" smooth="yes"/>
			<point x="185.2592651439" y="396" type="line" smooth="yes"/>
			<point x="204.8542760299" y="474.3582089552"/>
			<point x="186.6714456996" y="528"/>
			<point x="167.268460625" y="528" type="qcurve" smooth="yes"/>
			<point x="163.5371173414" y="528"/>
			<point x="157.193746421" y="526.7462686567"/>
		</contour>
		<contour>
			<point x="243.5263325142" y="641" type="line"/>
			<point x="279.7233776177" y="684.2835820896"/>
			<point x="387.8629338003" y="759.328358209"/>
			<point x="441.0356673208" y="775" type="qcurve"/>
			<point x="447.0074801622" y="798.8805970149"/>
			<point x="445.0128220664" y="822"/>
			<point x="439.7889414694" y="822" type="qcurve"/>
			<point x="432.7889414694" y="822" type="line"/>
			<point x="385.3997380513" y="805.5820895522"/>
			<point x="295.7201674772" y="745.328358209"/>
			<point x="258.0312089057" y="711" type="qcurve" smooth="yes"/>
			<point x="236.7612005242" y="691.5970149254"/>
			<point x="217.5205396538" y="664.9701492537"/>
			<point x="216.0275864434" y="659" type="qcurve" smooth="yes"/>
			<point x="213.9747757792" y="650.7910447761"/>
			<point x="222.6009593798" y="641"/>
			<point x="237.5263325142" y="641" type="qcurve"/>
		</contour>
		<contour>
			<point x="593.527168467" y="653" type="qcurve"/>
			<point x="578.232092154" y="702.2537313433"/>
			<point x="515.3492290847" y="776.8507462687"/>
			<point x="490.537199901" y="797" type="qcurve" smooth="yes"/>
			<point x="468.896656547" y="814.9104477612"/>
			<point x="448.5053593798" y="822"/>
			<point x="441.7889414694" y="822" type="qcurve"/>
			<point x="437.7889414694" y="822" type="line"/>
			<point x="433.3113295291" y="822"/>
			<point x="421.6307881276" y="801.3731343284"/>
			<point x="415.2857369835" y="776" type="qcurve"/>
			<point x="454.0906673904" y="761.0746268657"/>
			<point x="513.0719448783" y="706.5671641791"/>
			<point x="533.7783527335" y="670" type="qcurve"/>
			<point x="542.5459177205" y="654.328358209"/>
			<point x="553.3213176218" y="644"/>
			<point x="562.2765415024" y="644" type="qcurve" smooth="yes"/>
			<point x="571.231765383" y="644"/>
			<point x="585.5044164975" y="647.776119403"/>
		</contour>
	</outline>
</glyph>
<glyph name="Dcaron" format="2">
	<unicode hex="010E"/>
	<advance width="600"/>
	<outline>
		<contour>
			<point x="88.9830022924" y="19" type="qcurve"/>
			<point x="237.0242426321" y="611" type="line" smooth="yes"/>
			<point x="246.7284384995" y="649.8059701493"/>
			<point x="231.3987309969" y="684"/>
			<point x="205.2793280118" y="684" type="qcurve"/>
			<point x="43.9843955472" y="39" type="line"/>
			<point x="42.1182040342" y="31.5373134328"/>
			<point x="65.8486739342" y="19"/>
		</contour>
		<contour>
			<point x="159.2804426156" y="700" type="qcurve"/>
			<point x="158.7205851617" y="697.7611940299"/>
			<point x="157.3396034421" y="692.2388059701"/>
			<point x="156.7797459882" y="690" type="qcurve" smooth="yes"/>
			<point x="153.6072204162" y="677.3134328358"/>
			<point x="154.5501117491" y="660.9701492537"/>
			<point x="159.0273077925" y="655" type="qcurve" smooth="yes"/>
			<point x="161.2659058142" y="652.0149253731"/>
			<point x="168.7918848519" y="650"/>
			<point x="171.7769594788" y="650" type="qcurve" smooth="yes"/>
			<point x="177.0008400758" y="650"/>
			<point x="190.9449749405" y="651.5074626866"/>
			<point x="199.527168467" y="653" type="qcurve" smooth="yes"/>
			<point x="238.5201736645" y="659.7164179104"/>
			<point x="341.718651241" y="670"/>
			<point x="379.7783527335" y="670" type="qcurve" smooth="yes"/>
			<point x="441.718651241" y="670"/>
			<point x="511.1790254212" y="636.8059701493"/>
			<point x="541.7733370165" y="598" type="qcurve"/>
			<point x="585.6190639931" y="633.0746268657"/>
			<point x="482.6400448255" y="720"/>
			<point x="404.2818358703" y="720" type="qcurve" smooth="yes"/>
			<point x="349.0579552733" y="720"/>
			<point x="234.6544087378" y="711.9402985075"/>
		</contour>
		<contour>
			<point x="550.5071055991" y="365" type="qcurve" smooth="yes"/>
			<point x="563.7607977241" y="418" type="line" smooth="yes"/>
			<point x="598.471959865" y="556.8059701493"/>
			<point x="533.3863134822" y="720"/>
			<point x="404.2818358703" y="720" type="qcurve" smooth="yes"/>
			<point x="396.8191493031" y="720"/>
			<point x="382.5193151292" y="700.9552238806"/>
			<point x="380.2798853137" y="692" type="qcurve"/>
			<point x="496.6977957615" y="692"/>
			<point x="546.7177398428" y="549.7910447761"/>
			<point x="511.2601010967" y="408" type="qcurve" smooth="yes"/>
			<point x="503.0078022264" y="375" type="line" smooth="yes"/>
			<point x="466.9903060264" y="230.9701492537"/>
			<point x="286.6523756577" y="40"/>
			<point x="170.2344652099" y="40" type="qcurve" smooth="yes"/>
			<point x="138.8911816278" y="40"/>
			<point x="85.5041367148" y="54.5671641791"/>
			<point x="64.2364157665" y="68" type="qcurve"/>
			<point x="56.213663797" y="62.776119403"/>
			<point x="46.410444514" y="48.7014925373"/>
			<point x="43.9843955472" y="39" type="qcurve" smooth="yes"/>
			<point x="38.7590593109" y="18.1044776119"/>
			<point x="95.0294895358" y="-10"/>
			<point x="154.7309820731" y="-10" type="qcurve" smooth="yes"/>
			<point x="159.7309820731" y="-10" type="line" smooth="yes"/>
			<point x="291.8205343119" y="-10"/>
			<point x="510.3839880705" y="204.552238806"/>
		</contour>
		<contour>
			<point x="611.5480672878" y="953" type="line"/>
			<point x="576.470737092" y="914.1940298507"/>
			<point x="470.0891333146" y="846.1791044776"/>
			<point x="417.2896380967" y="832" type="qcurve"/>
			<point x="412.0643018605" y="811.1044776119"/>
			<point x="414.5628316648" y="790"/>
			<point x="419.7867122618" y="790" type="qcurve"/>
			<point x="426.7867122618" y="790" type="line"/>
			<point x="473.8026773773" y="804.9253731343"/>
			<point x="561.8511965691" y="858.6567164179"/>
			<point x="598.7936785354" y="890" type="qcurve" smooth="yes"/>
			<point x="619.503829463" y="907.1641791045"/>
			<point x="638.2406186249" y="931.776119403"/>
			<point x="639.546952684" y="937" type="qcurve" smooth="yes"/>
			<point x="641.413144197" y="944.4626865672"/>
			<point x="632.4734404221" y="953"/>
			<point x="617.5480672878" y="953" type="qcurve"/>
		</contour>
		<contour>
			<point x="261.7973009977" y="942" type="qcurve"/>
			<point x="278.3987113698" y="897.9701492537"/>
			<point x="343.1029773557" y="830.6567164179"/>
			<point x="368.288244842" y="812" type="qcurve" smooth="yes"/>
			<point x="390.4886456499" y="796.328358209"/>
			<point x="411.0702943514" y="790"/>
			<point x="417.7867122618" y="790" type="qcurve"/>
			<point x="421.7867122618" y="790" type="line"/>
			<point x="426.2643242021" y="790"/>
			<point x="437.4409938951" y="808.6119402985"/>
			<point x="443.039568434" y="831" type="qcurve"/>
			<point x="403.8613997245" y="844.4328358209"/>
			<point x="343.6857596683" y="894.1641791045"/>
			<point x="322.0462560566" y="927" type="qcurve"/>
			<point x="312.9054527671" y="941.1791044776"/>
			<point x="301.7530821802" y="950"/>
			<point x="292.7978582996" y="950" type="qcurve" smooth="yes"/>
			<point x="283.842634419" y="950"/>
			<point x="269.6334338159" y="946.4776119403"/>
		</contour>
	</outline>
</glyph>
<glyph name="Iogonek" format="2">
	<unicode hex="012E"/>
	<advance width="600"/>
	<outline>
		<contour>
			<point x="265.4834202689" y="25" type="qcurve"/>
			<point x="409.7736156675" y="602" type="line" smooth="yes"/>
			<point x="418.9179540809" y="638.5671641791"/>
			<point x="405.6406413457" y="675"/>
			<point x="378.0287010472" y="675" type="qcurve"/>
			<point x="233.7385056486" y="98" type="line" smooth="yes"/>
			<point x="224.7807863864" y="62.1791044776"/>
			<point x="237.8714799703" y="25"/>
		</contour>
		<contour>
			<point x="182.2804426156" y="700" type="line"/>
			<point x="180.041428697" y="697.0149253731"/>
			<point x="176.3990429196" y="688.4776119403"/>
			<point x="175.2793280118" y="684" type="qcurve" smooth="yes"/>
			<point x="173.0398981963" y="675.0447761194"/>
			<point x="174.3598309173" y="661.223880597"/>
			<point x="178.2773774552" y="656" type="qcurve" smooth="yes"/>
			<point x="180.5159754769" y="653.0149253731"/>
			<point x="187.2993475385" y="650"/>
			<point x="191.7769594788" y="650" type="qcurve" smooth="yes"/>
			<point x="624.7769594788" y="650" type="line"/>
			<point x="626.2697047407" y="652.9850746269"/>
			<point x="629.5314581519" y="661.0149253731"/>
			<point x="630.2779347571" y="664" type="qcurve" smooth="yes"/>
			<point x="634.7567943882" y="681.9104477612"/>
			<point x="627.4744724663" y="700"/>
			<point x="616.2804426156" y="700" type="qcurve" smooth="yes"/>
		</contour>
		<contour>
			<point x="19.7351618373" y="50" type="line"/>
			<point x="17.4961479186" y="47.0149253731"/>
			<point x="13.8537621413" y="38.4776119403"/>
			<point x="12.7340472335" y="34" type="qcurve" smooth="yes"/>
			<point x="10.4946174179" y="25.0447761194"/>
			<point x="11.8145501389" y="11.223880597"/>
			<point x="15.7320966769" y="6" type="qcurve" smooth="yes"/>
			<point x="17.9706946986" y="3.0149253731"/>
			<point x="24.7540667602" y="0"/>
			<point x="29.2316787005" y="0" type="qcurve" smooth="yes"/>
			<point x="464.2316787005" y="0" type="line"/>
			<point x="464.7915361543" y="2.2388059701"/>
			<point x="466.1725178739" y="7.7611940299"/>
			<point x="466.7323753278" y="10" type="qcurve" smooth="yes"/>
			<point x="471.7710924128" y="30.1492537313"/>
			<point x="464.929191688" y="50"/>
			<point x="453.7351618373" y="50" type="qcurve" smooth="yes"/>
		</contour>
		<contour>
			<point x="223.4717169292" y="-143" type="qcurve" smooth="yes"/>
			<point x="210.5949954898" y="-194.4925373134"/>
			<point x="254.9829197329" y="-250"/>
			<point x="308.7142630165" y="-250" type="qcurve" smooth="yes"/>
			<point x="351.997845106" y="-250"/>
			<point x="412.5000140085" y="-218.8656716418"/>
			<point x="419.2183034552" y="-192" type="qcurve" smooth="yes"/>
			<point x="420.8978758168" y="-185.2835820896"/>
			<point x="422.3985766032" y="-175.223880597"/>
			<point x="420.7198360354" y="-170" type="qcurve"/>
			<point x="416.7198360354" y="-170" type="line"/>
			<point x="393.3978487835" y="-185.671641791"/>
			<point x="347.3520745115" y="-200"/>
			<point x="324.2177461533" y="-200" type="qcurve" smooth="yes"/>
			<point x="293.1690423041" y="-200"/>
			<point x="269.7608922486" y="-169.8358208955"/>
			<point x="277.9721349056" y="-137" type="qcurve" smooth="yes"/>
			<point x="289.1692839834" y="-92.223880597"/>
			<point x="365.72148773" y="-39.1641791045"/>
			<point x="426.7301461203" y="-22" type="qcurve" smooth="yes"/>
			<point x="449.8648903754" y="-16.0298507463"/>
			<point x="462.7947112355" y="-5.7462686567"/>
			<point x="464.2316787005" y="0" type="qcurve"/>
			<point x="461.0606087677" y="8.2089552239"/>
			<point x="452.8933627153" y="17.7462686567"/>
			<point x="447.482862967" y="17" type="qcurve" smooth="yes"/>
			<point x="369.3106493176" y="8.7910447761"/>
			<point x="242.1336320588" y="-68.3731343284"/>
		</contour>
	</outline>
</glyph>
<glyph name="Idotaccent" format="2">
	<unicode hex="0130"/>
	<advance width="600"/>
	<outline>
		<contour>
			<point x="265.4834202689" y="25" type="qcurve"/>
			<point x="409.7736156675" y="602" type="line" smooth="yes"/>
			<point x="418.9179540809" y="638.5671641791"/>
			<point x="405.6406413457" y="675"/>
			<point x="378.0287010472" y="675" type="qcurve"/>
			<point x="233.7385056486" y="98" type="line" smooth="yes"/>
			<point x="224.7807863864" y="62.1791044776"/>
			<point x="237.8714799703" y="25"/>
		</contour>
		<contour>
			<point x="182.2804426156" y="700" type="line"/>
			<point x="180.041428697" y="697.0149253731"/>
			<point x="176.3990429196" y="688.4776119403"/>
			<point x="175.2793280118" y="684" type="qcurve" smooth="yes"/>
			<point x="173.0398981963" y="675.0447761194"/>
			<point x="174.3598309173" y="661.223880597"/>
			<point x="178.2773774552" y="656" type="qcurve" smooth="yes"/>
			<point x="180.5159754769" y="653.0149253731"/>
			<point x="187.2993475385" y="650"/>
			<point x="191.7769594788" y="650" type="qcurve" smooth="yes"/>
			<point x="624.7769594788" y="650" type="line"/>
			<point x="626.2697047407" y="652.9850746269"/>
			<point x="629.5314581519" y="661.0149253731"/>
			<point x="630.2779347571" y="664" type="qcurve" smooth="yes"/>
			<point x="634.7567943882" y="681.9104477612"/>
			<point x="627.4744724663" y="700"/>
			<point x="616.2804426156" y="700" type="qcurve" smooth="yes"/>
		</contour>
		<contour>
			<point x="19.7351618373" y="50" type="line"/>
			<point x="17.4961479186" y="47.0149253731"/>
			<point x="13.8537621413" y="38.4776119403"/>
			<point x="12.7340472335" y="34" type="qcurve" smooth="yes"/>
			<point x="10.4946174179" y="25.0447761194"/>
			<point x="11.8145501389" y="11.223880597"/>
			<point x="15.7320966769" y="6" type="qcurve" smooth="yes"/>
			<point x="17.9706946986" y="3.0149253731"/>
			<point x="24.7540667602" y="0"/>
			<point x="29.2316787005" y="0" type="qcurve" smooth="yes"/>
			<point x="464.2316787005" y="0" type="line"/>
			<point x="464.7915361543" y="2.2388059701"/>
			<point x="466.1725178739" y="7.7611940299"/>
			<point x="466.7323753278" y="10" type="qcurve" smooth="yes"/>
			<point x="471.7710924128" y="30.1492537313"/>
			<point x="464.929191688" y="50"/>
			<point x="453.7351618373" y="50" type="qcurve" smooth="yes"/>
		</contour>
		<contour>
			<point x="475.7878268656" y="806" type="qcurve"/>
			<point x="488.7914493279" y="858" type="line" smooth="yes"/>
			<point x="492.8970706564" y="874.4179104478"/>
			<point x="471.4244845385" y="893"/>
			<point x="447.5438875236" y="893" type="qcurve" smooth="yes"/>
			<point x="438.588663643" y="893"/>
			<point x="423.1370660917" y="891.4925373134"/>
			<point x="416.7936785354" y="890" type="qcurve"/>
			<point x="403.7900560731" y="838" type="line" smooth="yes"/>
			<point x="399.6844347446" y="821.5820895522"/>
			<point x="421.9032895192" y="803"/>
			<point x="445.0376178774" y="803" type="qcurve" smooth="yes"/>
			<point x="453.992841758" y="803"/>
			<point x="469.4444393093" y="804.5074626866"/>
		</contour>
	</outline>
</glyph>
<glyph name="Lcommaaccent" format="2">
	<unicode hex="013B"/>
	<advance width="600"/>
	<outline>
		<contour>
			<point x="89.2330719552" y="20" type="qcurve"/>
			<point x="246.7769594788" y="650" type="line" smooth="yes"/>
			<point x="250.8825808073" y="666.4179104478"/>
			<point x="252.4963760061" y="693.0447761194"/>
			<point x="245.7805819411" y="702" type="qcurve" smooth="yes"/>
			<point x="242.982334414" y="705.7313432836"/>
			<point x="232.228900437" y="710"/>
			<point x="221.7811392429" y="710" type="qcurve" smooth="yes"/>
			<point x="217.3035273026" y="710"/>
			<point x="208.8817804976" y="708.4925373134"/>
			<point x="204.0309302547" y="707" type="qcurve"/>
			<point x="201.9768718997" y="680.8805970149"/>
			<point x="191.1783849399" y="627.6119402985"/>
			<point x="184.273476342" y="600" type="qcurve" smooth="yes"/>
			<point x="46.7351618373" y="50" type="line" smooth="yes"/>
			<point x="43.0027788113" y="35.0746268657"/>
			<point x="70.5763555373" y="20"/>
		</contour>
		<contour>
			<point x="46.7351618373" y="50" type="line"/>
			<point x="44.2344652099" y="40" type="line" smooth="yes"/>
			<point x="40.6887013353" y="25.8208955224"/>
			<point x="52.291380193" y="0"/>
			<point x="64.2316787005" y="0" type="qcurve" smooth="yes"/>
			<point x="464.2316787005" y="0" type="line"/>
			<point x="464.7915361543" y="2.2388059701"/>
			<point x="466.1725178739" y="7.7611940299"/>
			<point x="466.7323753278" y="10" type="qcurve" smooth="yes"/>
			<point x="471.7710924128" y="30.1492537313"/>
			<point x="464.929191688" y="50"/>
			<point x="453.7351618373" y="50" type="qcurve"/>
		</contour>
		<contour>
			<point x="140.7128697618" y="-270" type="qcurve" smooth="yes"/>
			<point x="148.9218249856" y="-270"/>
			<point x="159.1161002156" y="-266.4776119403"/>
			<point x="164.7134270637" y="-262" type="qcurve" smooth="yes"/>
			<point x="194.6604555769" y="-238.0437122779"/>
			<point x="262.6430854733" y="-150.312488192"/>
			<point x="274.4745034387" y="-103" type="qcurve" smooth="yes"/>
			<point x="279.5132205236" y="-82.8507462687"/>
			<point x="257.406046112" y="-68"/>
			<point x="243.2269416344" y="-68" type="qcurve" smooth="yes"/>
			<point x="232.0329117837" y="-68"/>
			<point x="214.8087858075" y="-71.5223880597"/>
			<point x="206.2263843325" y="-76" type="qcurve"/>
			<point x="191.9653999577" y="-133.0280465803"/>
			<point x="145.55183095" y="-212.5464028704"/>
			<point x="105.4636360519" y="-259" type="qcurve"/>
			<point x="113.6721753788" y="-264.9701492537"/>
			<point x="128.7725712543" y="-270"/>
		</contour>
	</outline>
</glyph>
<glyph name="Ldot" format="2">
	<unicode hex="013F"/>
	<advance width="600"/>
	<outline>
		<contour>
			<point x="439.5065482972" y="357" type="qcurve"/>
			<point x="452.5101707594" y="409" type="line" smooth="yes"/>
			<point x="456.6157920879" y="425.4179104478"/>
			<point x="435.1432059701" y="444"/>
			<point x="411.2626089552" y="444" type="qcurve" smooth="yes"/>
			<point x="400.8148477612" y="444"/>
			<point x="382.8550437743" y="442.7276525775"/>
			<point x="375.512399967" y="441" type="qcurve"/>
			<point x="362.5087775047" y="389" type="line" smooth="yes"/>
			<point x="358.4031561762" y="372.5820895522"/>
			<point x="380.6220109508" y="354"/>
			<point x="403.756339309" y="354" type="qcurve" smooth="yes"/>
			<point x="414.204100503" y="354"/>
			<point x="432.1639044899" y="355.2723474225"/>
		</contour>
		<contour>
			<point x="89.2330719552" y="20" type="qcurve"/>
			<point x="246.7769594788" y="650" type="line" smooth="yes"/>
			<point x="250.8825808073" y="666.4179104478"/>
			<point x="252.4963760061" y="693.0447761194"/>
			<point x="245.7805819411" y="702" type="qcurve" smooth="yes"/>
			<point x="242.982334414" y="705.7313432836"/>
			<point x="232.228900437" y="710"/>
			<point x="221.7811392429" y="710" type="qcurve" smooth="yes"/>
			<point x="217.3035273026" y="710"/>
			<point x="208.8817804976" y="708.4925373134"/>
			<point x="204.0309302547" y="707" type="qcurve"/>
			<point x="201.9768718997" y="680.8805970149"/>
			<point x="191.1783849399" y="627.6119402985"/>
			<point x="184.273476342" y="600" type="qcurve" smooth="yes"/>
			<point x="46.7351618373" y="50" type="line" smooth="yes"/>
			<point x="43.0027788113" y="35.0746268657"/>
			<point x="70.5763555373" y="20"/>
		</contour>
		<contour>
			<point x="46.7351618373" y="50" type="line"/>
			<point x="44.2344652099" y="40" type="line" smooth="yes"/>
			<point x="40.6887013353" y="25.8208955224"/>
			<point x="52.291380193" y="0"/>
			<point x="64.2316787005" y="0" type="qcurve" smooth="yes"/>
			<point x="464.2316787005" y="0" type="line"/>
			<point x="464.7915361543" y="2.2388059701"/>
			<point x="466.1725178739" y="7.7611940299"/>
			<point x="466.7323753278" y="10" type="qcurve" smooth="yes"/>
			<point x="471.7710924128" y="30.1492537313"/>
			<point x="464.929191688" y="50"/>
			<point x="453.7351618373" y="50" type="qcurve"/>
		</contour>
	</outline>
</glyph>
<glyph name="ldot" format="2">
	<unicode hex="0140"/>
	<advance width="600"/>
	<outline>
		<contour>
			<point x="199.7839257524" y="750" type="qcurve"/>
			<point x="197.3582926825" y="746.2686567164"/>
			<point x="193.5890058822" y="737.223880597"/>
			<point x="192.2826718231" y="732" type="qcurve" smooth="yes"/>
			<point x="188.7369079485" y="717.8208955224"/>
			<point x="196.0864127648" y="700"/>
			<point x="207.2804426156" y="700" type="qcurve" smooth="yes"/>
			<point x="221.5116123483" y="700"/>
			<point x="327.2594453866" y="710"/>
			<point x="414.7811392429" y="710" type="qcurve"/>
			<point x="421.4994286896" y="736.8656716418"/>
			<point x="417.7174582006" y="760"/>
			<point x="404.2846223797" y="760" type="qcurve" smooth="yes"/>
			<point x="362.3316513857" y="760"/>
			<point x="264.3337536373" y="754.9790233303"/>
		</contour>
		<contour>
			<point x="446.5338560896" y="749" type="qcurve" smooth="yes"/>
			<point x="442.0566600463" y="754.9701492537"/>
			<point x="426.2249208872" y="760"/>
			<point x="414.2846223797" y="760" type="qcurve"/>
			<point x="404.2846223797" y="760" type="line"/>
			<point x="238.7385056486" y="98" type="line" smooth="yes"/>
			<point x="229.7807863864" y="62.1791044776"/>
			<point x="242.8714799703" y="25"/>
			<point x="270.4834202689" y="25" type="qcurve"/>
			<point x="448.5330201368" y="737" type="line"/>
			<point x="449.4661158933" y="740.7313432836"/>
			<point x="448.2128046059" y="746.7611940299"/>
		</contour>
		<contour>
			<point x="9.7351618373" y="50" type="line"/>
			<point x="7.4961479186" y="47.0149253731"/>
			<point x="4.0403812925" y="39.223880597"/>
			<point x="2.7340472335" y="34" type="qcurve" smooth="yes"/>
			<point x="0.6812365692" y="25.7910447761"/>
			<point x="1.0646198017" y="12.223880597"/>
			<point x="4.9821663396" y="7" type="qcurve" smooth="yes"/>
			<point x="7.7804138667" y="3.2686567164"/>
			<point x="15.7689921333" y="0"/>
			<point x="23.2316787005" y="0" type="qcurve" smooth="yes"/>
			<point x="494.2316787005" y="0" type="line"/>
			<point x="494.604917003" y="1.4925373134"/>
			<point x="495.8589976998" y="6.5074626866"/>
			<point x="496.2322360023" y="8" type="qcurve" smooth="yes"/>
			<point x="500.5244764821" y="25.1641791045"/>
			<point x="369.5777669933" y="50"/>
			<point x="276.7351618373" y="50" type="qcurve" smooth="yes"/>
		</contour>
		<contour>
			<point x="523.5065482972" y="357" type="qcurve"/>
			<point x="536.5101707594" y="409" type="line" smooth="yes"/>
			<point x="540.6157920879" y="425.4179104478"/>
			<point x="519.1432059701" y="444"/>
			<point x="495.2626089552" y="444" type="qcurve" smooth="yes"/>
			<point x="486.3073850746" y="444"/>
			<point x="470.8557875233" y="442.4925373134"/>
			<point x="464.512399967" y="441" type="qcurve"/>
			<point x="451.5087775047" y="389" type="line" smooth="yes"/>
			<point x="447.4031561762" y="372.5820895522"/>
			<point x="469.6220109508" y="354"/>
			<point x="492.756339309" y="354" type="qcurve" smooth="yes"/>
			<point x="501.7115631896" y="354"/>
			<point x="517.1631607409" y="355.5074626866"/>
		</contour>
	</outline>
</glyph>
<glyph name="scircumflex" format="2">
	<unicode hex="015D"/>
	<advance width="600"/>
	<outline>
		<contour>
			<point x="429.0192269151" y="539" type="qcurve" smooth="yes"/>
			<point x="424.0192269151" y="539" type="line" smooth="yes"/>
			<point x="322.529851757" y="539"/>
			<point x="152.3625473441" y="432.4029850746"/>
			<point x="135.0069662736" y="363" type="qcurve" smooth="yes"/>
			<point x="128.288676827" y="336.1343283582"/>
			<point x="174.7915628597" y="324"/>
			<point x="182.2542494269" y="324" type="qcurve"/>
			<point x="181.3224013612" y="338.1791044776"/>
			<point x="184.0178847717" y="359.0447761194"/>
			<point x="186.2573145873" y="368" type="qcurve" smooth="yes"/>
			<point x="198.2009402702" y="415.7611940299"/>
			<point x="336.9538236492" y="489"/>
			<point x="410.5157437783" y="489" type="qcurve" smooth="yes"/>
			<point x="454.9187288529" y="489"/>
			<point x="508.4214720357" y="478.3407485018"/>
			<point x="524.0142111981" y="467" type="qcurve"/>
			<point x="528.0142111981" y="467" type="line"/>
			<point x="530.439844268" y="470.7313432836"/>
			<point x="533.8956108941" y="478.5223880597"/>
			<point x="535.0153258019" y="483" type="qcurve" smooth="yes"/>
			<point x="537.62799392" y="493.447761194"/>
			<point x="539.0432075681" y="508.2985074627"/>
			<point x="531.7677639977" y="518" type="qcurve" smooth="yes"/>
			<point x="524.2248692883" y="528.0581271813"/>
			<point x="468.9733026901" y="539"/>
		</contour>
		<contour>
			<point x="365.5004179764" y="269" type="qcurve" smooth="yes"/>
			<point x="277.7516022429" y="286" type="line" smooth="yes"/>
			<point x="205.9242317892" y="300.1791044776"/>
			<point x="180.8453591997" y="346.3582089552"/>
			<point x="186.2573145873" y="368" type="qcurve" smooth="yes"/>
			<point x="187.9368869489" y="374.7164179104"/>
			<point x="195.2370039327" y="397.8208955224"/>
			<point x="203.2603797476" y="412" type="qcurve"/>
			<point x="173.968659139" y="402.2985074627"/>
			<point x="139.2992067534" y="380.1641791045"/>
			<point x="135.0069662736" y="363" type="qcurve"/>
			<point x="123.9964363472" y="318.9701492537"/>
			<point x="171.372780816" y="257.9253731343"/>
			<point x="245.9986067453" y="243" type="qcurve" smooth="yes"/>
			<point x="334.497352816" y="225" type="line" smooth="yes"/>
			<point x="404.8321859563" y="210.8208955224"/>
			<point x="437.1231098304" y="155.5223880597"/>
			<point x="425.7393416014" y="110" type="qcurve" smooth="yes"/>
			<point x="424.6196266936" y="105.5223880597"/>
			<point x="422.1711834286" y="95.7313432836"/>
			<point x="421.2380876722" y="92" type="qcurve"/>
			<point x="437.2831757143" y="96.4776119403"/>
			<point x="471.1289026908" y="131.552238806"/>
			<point x="473.741570809" y="142" type="qcurve"/>
			<point x="484.3788624328" y="184.5373134328"/>
			<point x="436.7681389247" y="255.5671641791"/>
		</contour>
		<contour>
			<point x="244.2344652099" y="40" type="qcurve" smooth="yes"/>
			<point x="171.1001368517" y="40"/>
			<point x="88.6166946203" y="63.4328358209"/>
			<point x="52.238644974" y="100" type="qcurve"/>
			<point x="48.238644974" y="100" type="line"/>
			<point x="46.9325188634" y="97.7611940299"/>
			<point x="43.7304835806" y="89.9701492537"/>
			<point x="42.2375303703" y="84" type="qcurve" smooth="yes"/>
			<point x="39.4382431008" y="72.8059701493"/>
			<point x="37.7684621566" y="45.9552238806"/>
			<point x="44.4842562217" y="37" type="qcurve" smooth="yes"/>
			<point x="59.9678232222" y="15.3582089552"/>
			<point x="158.8205343119" y="-10"/>
			<point x="226.7309820731" y="-10" type="qcurve" smooth="yes"/>
			<point x="231.7309820731" y="-10" type="line" smooth="yes"/>
			<point x="325.0145641627" y="-10"/>
			<point x="455.2662748307" y="68.1194029851"/>
			<point x="473.741570809" y="142" type="qcurve"/>
			<point x="476.3542389271" y="152.447761194"/>
			<point x="455.9150238311" y="168"/>
			<point x="440.2433820401" y="168" type="qcurve"/>
			<point x="439.1236671323" y="163.5223880597"/>
			<point x="437.5523338784" y="157.2388059701"/>
			<point x="436.9924764245" y="155" type="qcurve" smooth="yes"/>
			<point x="425.7953273468" y="110.223880597"/>
			<point x="332.2941667024" y="40"/>
		</contour>
		<contour>
			<point x="257.5263325142" y="641" type="line"/>
			<point x="293.7233776177" y="684.2835820896"/>
			<point x="401.8629338003" y="759.328358209"/>
			<point x="455.0356673208" y="775" type="qcurve"/>
			<point x="461.0074801622" y="798.8805970149"/>
			<point x="459.0128220664" y="822"/>
			<point x="453.7889414694" y="822" type="qcurve"/>
			<point x="446.7889414694" y="822" type="line"/>
			<point x="399.3997380513" y="805.5820895522"/>
			<point x="309.7201674772" y="745.328358209"/>
			<point x="272.0312089057" y="711" type="qcurve" smooth="yes"/>
			<point x="250.7612005242" y="691.5970149254"/>
			<point x="231.5205396538" y="664.9701492537"/>
			<point x="230.0275864434" y="659" type="qcurve" smooth="yes"/>
			<point x="227.9747757792" y="650.7910447761"/>
			<point x="236.6009593798" y="641"/>
			<point x="251.5263325142" y="641" type="qcurve"/>
		</contour>
		<contour>
			<point x="607.527168467" y="653" type="qcurve"/>
			<point x="592.232092154" y="702.2537313433"/>
			<point x="529.3492290847" y="776.8507462687"/>
			<point x="504.537199901" y="797" type="qcurve" smooth="yes"/>
			<point x="482.896656547" y="814.9104477612"/>
			<point x="462.5053593798" y="822"/>
			<point x="455.7889414694" y="822" type="qcurve"/>
			<point x="451.7889414694" y="822" type="line"/>
			<point x="447.3113295291" y="822"/>
			<point x="435.6307881276" y="801.3731343284"/>
			<point x="429.2857369835" y="776" type="qcurve"/>
			<point x="468.0906673904" y="761.0746268657"/>
			<point x="527.0719448783" y="706.5671641791"/>
			<point x="547.7783527335" y="670" type="qcurve"/>
			<point x="556.5459177205" y="654.328358209"/>
			<point x="567.3213176218" y="644"/>
			<point x="576.2765415024" y="644" type="qcurve" smooth="yes"/>
			<point x="585.231765383" y="644"/>
			<point x="599.5044164975" y="647.776119403"/>
		</contour>
	</outline>
</glyph>
<glyph name="oogonek" format="2">
	<unicode hex="01EB"/>
	<advance width="600"/>
	<outline>
		<contour>
			<point x="368.2690179269" y="536" type="qcurve" smooth="yes"/>
			<point x="273.4928985239" y="536"/>
			<point x="102.4554095386" y="372.7910447761"/>
			<point x="66.9977707925" y="231" type="qcurve" smooth="yes"/>
			<point x="64.9972134906" y="223" type="line" smooth="yes"/>
			<point x="37.3775790988" y="112.552238806"/>
			<point x="128.7459074462" y="-10"/>
			<point x="231.7309820731" y="-10" type="qcurve" smooth="yes"/>
			<point x="246.6563552074" y="-10"/>
			<point x="260.9936421396" y="11.0447761194"/>
			<point x="263.2330719552" y="20" type="qcurve"/>
			<point x="147.5624699065" y="34.9253731343"/>
			<point x="99.2614866533" y="160.0746268657"/>
			<point x="115.497352816" y="225" type="qcurve" smooth="yes"/>
			<point x="116.9977707925" y="231" type="line" smooth="yes"/>
			<point x="142.3779753686" y="332.4925373134"/>
			<point x="268.4670273274" y="486"/>
			<point x="358.7655347901" y="486" type="qcurve" smooth="yes"/>
			<point x="390.8550870289" y="486"/>
			<point x="445.8838190124" y="469.9402985075"/>
			<point x="469.7635842335" y="458" type="qcurve"/>
			<point x="483.7569013537" y="469.1940298507"/>
			<point x="436.1794656881" y="536"/>
		</contour>
		<contour>
			<point x="231.7309820731" y="-10" type="qcurve" smooth="yes"/>
			<point x="333.2235193865" y="-10"/>
			<point x="487.5679306332" y="113.3134328358"/>
			<point x="515.7474224788" y="226" type="qcurve" smooth="yes"/>
			<point x="517.7479797807" y="234" type="line" smooth="yes"/>
			<point x="551.1528078625" y="367.5820895522"/>
			<point x="464.5376746433" y="536"/>
			<point x="368.2690179269" y="536" type="qcurve" smooth="yes"/>
			<point x="353.3436447926" y="536"/>
			<point x="337.6256547917" y="513.4328358209"/>
			<point x="334.2665100684" y="500" type="qcurve"/>
			<point x="434.265886223" y="491.0447761194"/>
			<point x="493.5611407878" y="337.223880597"/>
			<point x="467.2478404552" y="232" type="qcurve" smooth="yes"/>
			<point x="465.7474224788" y="226" type="line" smooth="yes"/>
			<point x="445.9657924415" y="146.8955223881"/>
			<point x="333.025509986" y="40"/>
			<point x="241.2344652099" y="40" type="qcurve" smooth="yes"/>
			<point x="209.1449129711" y="40"/>
			<point x="154.1161809876" y="56.0597014925"/>
			<point x="130.2364157665" y="68" type="qcurve"/>
			<point x="114.3773230303" y="55.3134328358"/>
			<point x="163.8205343119" y="-10"/>
		</contour>
		<contour>
			<point x="88.2230405212" y="-124" type="qcurve" smooth="yes"/>
			<point x="74.9730807792" y="-176.9850746269"/>
			<point x="126.9989597098" y="-234"/>
			<point x="183.7153776203" y="-234" type="qcurve" smooth="yes"/>
			<point x="221.7750791128" y="-234"/>
			<point x="274.4971175783" y="-206.8805970149"/>
			<point x="280.4689304198" y="-183" type="qcurve" smooth="yes"/>
			<point x="282.1485027814" y="-176.2835820896"/>
			<point x="283.6492035678" y="-166.223880597"/>
			<point x="281.970463" y="-161" type="qcurve"/>
			<point x="277.970463" y="-161" type="line"/>
			<point x="259.1262956369" y="-173.6865671642"/>
			<point x="219.3681144884" y="-184"/>
			<point x="199.2188607571" y="-184" type="qcurve" smooth="yes"/>
			<point x="159.6666219511" y="-184"/>
			<point x="131.1986956664" y="-152.0895522388"/>
			<point x="139.2233191722" y="-120" type="qcurve" smooth="yes"/>
			<point x="149.3007533421" y="-79.7014925373"/>
			<point x="227.2308302707" y="-12.1791044776"/>
			<point x="289.7318180259" y="2" type="qcurve" smooth="yes"/>
			<point x="305.4036677654" y="4.9850746269"/>
			<point x="319.1130783965" y="11.5223880597"/>
			<point x="320.2327933042" y="16" type="qcurve"/>
			<point x="319.1137022419" y="20.4776119403"/>
			<point x="310.6929327946" y="33"/>
			<point x="302.4839775707" y="33" type="qcurve" smooth="yes"/>
			<point x="242.7824850334" y="33"/>
			<point x="104.8321449865" y="-57.5820895522"/>
		</contour>
	</outline>
</glyph>
<glyph name="Scommaaccent" format="2">
	<unicode hex="0218"/>
	<advance width="600"/>
	<outline>
		<contour>
			<point x="492.2818358703" y="720" type="qcurve" smooth="yes"/>
			<point x="387.0579552733" y="720"/>
			<point x="157.0895848907" y="531.2835820896"/>
			<point x="133.7621909788" y="438" type="qcurve" smooth="yes"/>
			<point x="131.2614943514" y="428" type="line" smooth="yes"/>
			<point x="125.8495389639" y="406.3582089552"/>
			<point x="158.6946813133" y="379.4776119403"/>
			<point x="171.0078022264" y="375" type="qcurve"/>
			<point x="172.8746175848" y="391.4179104478"/>
			<point x="179.4064999875" y="420.5820895522"/>
			<point x="183.512121316" y="437" type="qcurve" smooth="yes"/>
			<point x="202.9205130508" y="514.6119402985"/>
			<point x="397.6888004947" y="670"/>
			<point x="479.7783527335" y="670" type="qcurve" smooth="yes"/>
			<point x="532.0171587037" y="670"/>
			<point x="565.3983168875" y="624.4925373134"/>
			<point x="552.5215954481" y="573" type="qcurve"/>
			<point x="564.4618939556" y="573"/>
			<point x="581.6223359681" y="589.3983926521"/>
			<point x="583.2731976911" y="596" type="qcurve" smooth="yes"/>
			<point x="589.3106348494" y="620.1430211579"/>
			<point x="589.9224456441" y="669.8078582723"/>
			<point x="576.2796066628" y="688" type="qcurve"/>
			<point x="565.6462660598" y="702.1791044776"/>
			<point x="527.356462736" y="720"/>
		</contour>
		<contour>
			<point x="374.0016719057" y="287" type="qcurve" smooth="yes"/>
			<point x="296.7538314505" y="318" type="line" smooth="yes"/>
			<point x="206.4578193694" y="353.8208955224"/>
			<point x="176.0473552642" y="407.1492537313"/>
			<point x="183.512121316" y="437" type="qcurve" smooth="yes"/>
			<point x="186.8712660394" y="450.4328358209"/>
			<point x="194.1753275136" y="476.5970149254"/>
			<point x="201.2662314175" y="496" type="qcurve"/>
			<point x="181.6762112946" y="489.2835820896"/>
			<point x="138.7262604032" y="457.8507462687"/>
			<point x="131.2614943514" y="428" type="qcurve" smooth="yes"/>
			<point x="118.5713920633" y="377.2537313433"/>
			<point x="181.8313755412" y="306.3134328358"/>
			<point x="272.5004179764" y="269" type="qcurve" smooth="yes"/>
			<point x="350.4981887689" y="237" type="line" smooth="yes"/>
			<point x="415.421690367" y="210.1343283582"/>
			<point x="454.3729008422" y="152.5223880597"/>
			<point x="442.9891326132" y="107" type="qcurve" smooth="yes"/>
			<point x="442.0560368567" y="103.2686567164"/>
			<point x="439.4209744404" y="92.7313432836"/>
			<point x="438.487878684" y="89" type="qcurve"/>
			<point x="451.3612729479" y="92.7313432836"/>
			<point x="491.0691845624" y="131.3134328358"/>
			<point x="494.2417101344" y="144" type="qcurve"/>
			<point x="505.6254783635" y="189.5223880597"/>
			<point x="444.5220844549" y="258.6417910448"/>
		</contour>
		<contour>
			<point x="231.2308427476" y="-12" type="qcurve" smooth="yes"/>
			<point x="330.4845740909" y="-12"/>
			<point x="475.449161599" y="68.8507462687"/>
			<point x="492.9913618207" y="139" type="qcurve" smooth="yes"/>
			<point x="494.2417101344" y="144" type="line" smooth="yes"/>
			<point x="500.0269038246" y="167.1343283582"/>
			<point x="478.3083131446" y="189.5074626866"/>
			<point x="465.994984283" y="191" type="qcurve"/>
			<point x="465.2485076778" y="188.0149253731"/>
			<point x="462.7328815184" y="177.9552238806"/>
			<point x="460.4934517028" y="169" type="qcurve" smooth="yes"/>
			<point x="444.817442994" y="106.3134328358"/>
			<point x="331.794027377" y="38"/>
			<point x="243.7343258844" y="38" type="qcurve" smooth="yes"/>
			<point x="167.6149228993" y="38"/>
			<point x="75.4349765224" y="79.4776119403"/>
			<point x="52.4903865424" y="125" type="qcurve"/>
			<point x="48.4903865424" y="125" type="line"/>
			<point x="43.2658821" y="116.0447761194"/>
			<point x="36.0370962906" y="99.1940298507"/>
			<point x="33.2378090212" y="88" type="qcurve" smooth="yes"/>
			<point x="30.2519026005" y="76.0597014925"/>
			<point x="30.9595789413" y="57.7014925373"/>
			<point x="38.2350225118" y="48" type="qcurve" smooth="yes"/>
			<point x="61.180652234" y="17.4029850746"/>
			<point x="162.5741263297" y="-12"/>
		</contour>
		<contour>
			<point x="547.5132359198" y="453" type="qcurve"/>
			<point x="583.2731976911" y="596" type="line" smooth="yes"/>
			<point x="599.6956830051" y="661.671641791"/>
			<point x="546.7535693994" y="689.1791044776"/>
			<point x="529.0287010472" y="675" type="qcurve"/>
			<point x="538.7289458937" y="657.0895522388"/>
			<point x="540.4244435687" y="624.5970149254"/>
			<point x="532.7730583656" y="594" type="qcurve" smooth="yes"/>
			<point x="507.766092092" y="494" type="line" smooth="yes"/>
			<point x="504.7801856713" y="482.0597014925"/>
			<point x="505.5364578529" y="464.9701492537"/>
			<point x="510.0136538962" y="459" type="qcurve" smooth="yes"/>
			<point x="513.3715509288" y="454.5223880597"/>
			<point x="525.3003403644" y="450"/>
			<point x="532.7630269316" y="450" type="qcurve" smooth="yes"/>
			<point x="537.2406388719" y="450"/>
			<point x="544.1549229904" y="451.5074626866"/>
		</contour>
		<contour>
			<point x="129.7128697618" y="-270" type="qcurve" smooth="yes"/>
			<point x="137.9218249856" y="-270"/>
			<point x="148.1161002156" y="-266.4776119403"/>
			<point x="153.7134270637" y="-262" type="qcurve" smooth="yes"/>
			<point x="183.6604555769" y="-238.0437122779"/>
			<point x="251.6430854733" y="-150.312488192"/>
			<point x="263.4745034387" y="-103" type="qcurve" smooth="yes"/>
			<point x="268.5132205236" y="-82.8507462687"/>
			<point x="246.406046112" y="-68"/>
			<point x="232.2269416344" y="-68" type="qcurve" smooth="yes"/>
			<point x="221.0329117837" y="-68"/>
			<point x="203.8087858075" y="-71.5223880597"/>
			<point x="195.2263843325" y="-76" type="qcurve"/>
			<point x="180.9653999577" y="-133.0280465803"/>
			<point x="134.55183095" y="-212.5464028704"/>
			<point x="94.4636360519" y="-259" type="qcurve"/>
			<point x="102.6721753788" y="-264.9701492537"/>
			<point x="117.7725712543" y="-270"/>
		</contour>
	</outline>
</glyph>
<glyph name="uni021A" format="2">
	<unicode hex="021A"/>
	<advance width="600"/>
	<outline>
		<contour>
			<point x="309.2804426156" y="700" type="qcurve"/>
			<point x="170.2417101344" y="144" type="line" smooth="yes"/>
			<point x="155.6854163334" y="85.7910447761"/>
			<point x="206.5943021097" y="9.8059701493"/>
			<point x="241.4831416179" y="21" type="qcurve"/>
			<point x="220.7756940204" y="42.6417910448"/>
			<point x="211.3063851704" y="108.2686567164"/>
			<point x="224.7429640637" y="162" type="qcurve" smooth="yes"/>
			<point x="354.2790493609" y="680" type="line" smooth="yes"/>
			<point x="357.2506004623" y="691.8828932262"/>
			<point x="337.717218768" y="703"/>
			<point x="325.0306516038" y="703" type="qcurve" smooth="yes"/>
			<point x="321.2993083202" y="703"/>
			<point x="313.3850242018" y="701.4925373134"/>
		</contour>
		<contour>
			<point x="482.238644974" y="100" type="qcurve"/>
			<point x="478.238644974" y="100" type="line"/>
			<point x="425.0642478658" y="60.447761194"/>
			<point x="347.4800372393" y="30"/>
			<point x="296.7337685825" y="30" type="qcurve" smooth="yes"/>
			<point x="248.226305896" y="30"/>
			<point x="200.1034723451" y="87.8805970149"/>
			<point x="198.2431033891" y="164" type="qcurve"/>
			<point x="187.7953421951" y="164"/>
			<point x="172.2945207987" y="152.2089552239"/>
			<point x="170.2417101344" y="144" type="qcurve" smooth="yes"/>
			<point x="152.6995099127" y="73.8507462687"/>
			<point x="209.3347630577" y="-20"/>
			<point x="280.2302854457" y="-20" type="qcurve" smooth="yes"/>
			<point x="286.2302854457" y="-20" type="line" smooth="yes"/>
			<point x="330.260136192" y="-20"/>
			<point x="413.3812194007" y="4.1194029851"/>
			<point x="443.2336292571" y="28" type="qcurve" smooth="yes"/>
			<point x="459.0927219933" y="40.6865671642"/>
			<point x="474.3185281931" y="68.328358209"/>
			<point x="478.2375303703" y="84" type="qcurve" smooth="yes"/>
			<point x="479.1706261268" y="87.7313432836"/>
			<point x="481.3055492176" y="96.2686567164"/>
		</contour>
		<contour>
			<point x="140.7683212995" y="526" type="line"/>
			<point x="140.2084638457" y="523.7611940299"/>
			<point x="138.8274821261" y="518.2388059701"/>
			<point x="138.2676246722" y="516" type="qcurve" smooth="yes"/>
			<point x="135.2817182515" y="504.0597014925"/>
			<point x="136.0379904331" y="486.9701492537"/>
			<point x="140.5151864764" y="481" type="qcurve" smooth="yes"/>
			<point x="142.1941349927" y="478.7611940299"/>
			<point x="147.5334948792" y="476"/>
			<point x="151.2648381627" y="476" type="qcurve" smooth="yes"/>
			<point x="578.2648381627" y="476" type="line"/>
			<point x="578.8246956166" y="478.2388059701"/>
			<point x="580.2056773362" y="483.7611940299"/>
			<point x="580.7655347901" y="486" type="qcurve" smooth="yes"/>
			<point x="584.8711561186" y="502.4179104478"/>
			<point x="581.2011571204" y="526"/>
			<point x="567.7683212995" y="526" type="qcurve" smooth="yes"/>
		</contour>
		<contour>
			<point x="185.7128697618" y="-270" type="qcurve" smooth="yes"/>
			<point x="193.9218249856" y="-270"/>
			<point x="204.1161002156" y="-266.4776119403"/>
			<point x="209.7134270637" y="-262" type="qcurve" smooth="yes"/>
			<point x="239.6604555769" y="-238.0437122779"/>
			<point x="307.6430854733" y="-150.312488192"/>
			<point x="319.4745034387" y="-103" type="qcurve" smooth="yes"/>
			<point x="324.5132205236" y="-82.8507462687"/>
			<point x="302.406046112" y="-68"/>
			<point x="288.2269416344" y="-68" type="qcurve" smooth="yes"/>
			<point x="277.0329117837" y="-68"/>
			<point x="259.8087858075" y="-71.5223880597"/>
			<point x="251.2263843325" y="-76" type="qcurve"/>
			<point x="236.9653999577" y="-133.0280465803"/>
			<point x="190.55183095" y="-212.5464028704"/>
			<point x="150.4636360519" y="-259" type="qcurve"/>
			<point x="158.6721753788" y="-264.9701492537"/>
			<point x="173.7725712543" y="-270"/>
		</contour>
	</outline>
	<note>
		T comma below
	</note>
</glyph>
<glyph name="ogonek" format="2">
	<unicode hex="02DB"/>
	<advance width="600"/>
	<outline>
		<contour>
			<point x="126.2219259174" y="-140" type="qcurve" smooth="yes"/>
			<point x="112.9719661755" y="-192.9850746269"/>
			<point x="164.997845106" y="-250"/>
			<point x="221.7142630165" y="-250" type="qcurve" smooth="yes"/>
			<point x="259.773964509" y="-250"/>
			<point x="312.4960029746" y="-222.8805970149"/>
			<point x="318.467815816" y="-199" type="qcurve" smooth="yes"/>
			<point x="320.1473881777" y="-192.2835820896"/>
			<point x="321.648088964" y="-182.223880597"/>
			<point x="319.9693483962" y="-177" type="qcurve"/>
			<point x="315.9693483962" y="-177" type="line"/>
			<point x="297.1251810331" y="-189.6865671642"/>
			<point x="257.3669998846" y="-200"/>
			<point x="237.2177461533" y="-200" type="qcurve" smooth="yes"/>
			<point x="197.6655073473" y="-200"/>
			<point x="169.1975810627" y="-168.0895522388"/>
			<point x="177.2222045684" y="-136" type="qcurve" smooth="yes"/>
			<point x="187.2996387383" y="-95.7014925373"/>
			<point x="265.2297156669" y="-28.1791044776"/>
			<point x="327.7307034222" y="-14" type="qcurve" smooth="yes"/>
			<point x="343.4025531617" y="-11.0149253731"/>
			<point x="357.1119637927" y="-4.4776119403"/>
			<point x="358.2316787005" y="0" type="qcurve"/>
			<point x="357.1125876381" y="4.4776119403"/>
			<point x="348.6918181908" y="17"/>
			<point x="340.482862967" y="17" type="qcurve" smooth="yes"/>
			<point x="280.7813704297" y="17"/>
			<point x="142.8310303827" y="-73.5820895522"/>
		</contour>
	</outline>
</glyph>
<glyph name="acutecomb" format="2">
	<unicode hex="0301"/>
	<outline>
		<contour>
			<point x="66.94823736" y="644.776119403"/>
			<point x="79.3024519172" y="641"/>
			<point x="84.5263325142" y="641" type="qcurve" smooth="yes"/>
			<point x="92.7352877381" y="641"/>
			<point x="115.9036359173" y="647.2835820896"/>
			<point x="128.7772381297" y="654" type="qcurve" smooth="yes"/>
			<point x="170.5697385451" y="674.8955223881"/>
			<point x="245.4437756617" y="741.4179104478"/>
			<point x="265.0356673208" y="775" type="qcurve" smooth="yes"/>
			<point x="270.0735526119" y="783.2089552239"/>
			<point x="270.1195348324" y="800.5223880597"/>
			<point x="261.5377572029" y="805" type="qcurve" smooth="yes"/>
			<point x="254.2618977355" y="808.7313432836"/>
			<point x="240.23220503" y="811"/>
			<point x="229.0381751793" y="811" type="qcurve"/>
			<point x="206.8336154021" y="766.9701492537"/>
			<point x="121.6153797301" y="687.3134328358"/>
			<point x="63.7769594788" y="650" type="qcurve"/>
		</contour>
	</outline>
	<anchor name="_top" x="68.0189482642" y="535"/>
	<guideline x="-65.7683212995" y="0" angle="179.1517819709" identifier="nQdIxUusb7"/>
	<guideline x="-128.2857369835" y="-250" angle="180" identifier="OYpnKsWXwb"/>
	<guideline x="-115.7822538467" y="-200" angle="180" identifier="nnPOvCC8T3"/>
	<guideline x="-103.2787707099" y="-150" angle="180" identifier="SP8lCL77bf"/>
	<guideline x="-90.7752875731" y="-100" angle="180" identifier="BzwcA9tCP0"/>
	<guideline x="-78.2718044363" y="-50" angle="180" identifier="183MzDDtnF"/>
	<guideline x="-65.7683212995" y="0" angle="180" identifier="sPExzDcBNk"/>
	<guideline x="-53.2648381627" y="50" angle="180" identifier="EhaNRFXyEL"/>
	<guideline x="-40.761355026" y="100" angle="180" identifier="x1xSy8xobW"/>
	<guideline x="-28.2578718892" y="150" angle="180" identifier="MdmBCtP4fF"/>
	<guideline x="-15.7543887524" y="200" angle="180" identifier="mo9RI79LE4"/>
	<guideline x="-3.2509056156" y="250" angle="180" identifier="e0soIKMshn"/>
	<guideline x="9.2525775212" y="300" angle="180" identifier="6mnaJGL7JG"/>
	<guideline x="21.756060658" y="350" angle="180" identifier="9gBepK2PcS"/>
	<guideline x="34.2595437948" y="400" angle="180" identifier="g5S8vVg7Tr"/>
	<guideline x="46.7630269316" y="450" angle="180" identifier="AQi9Zb5vwm"/>
	<guideline x="59.2665100684" y="500" angle="180" identifier="dKHlQ3yJzz"/>
	<guideline x="71.7699932052" y="550" angle="180" identifier="RrSQYVGgZQ"/>
	<guideline x="84.273476342" y="600" angle="180" identifier="w1mK7qnrvZ"/>
	<guideline x="96.7769594788" y="650" angle="180" identifier="iAJiAkwDaC"/>
	<guideline x="109.2804426156" y="700" angle="180" identifier="f5EQ5xi8FW"/>
</glyph>
<glyph name="Wdieresis" format="2">
	<unicode hex="1E84"/>
	<advance width="600"/>
	<outline>
		<contour>
			<point x="154.7811392429" y="710" type="qcurve"/>
			<point x="65.9504232263" y="354.776119403"/>
			<point x="39.9124941331" y="76.4326787691"/>
			<point x="93.4820270141" y="5" type="qcurve" smooth="yes"/>
			<point x="99.0785220683" y="-2.4626865672"/>
			<point x="112.2682955059" y="-10"/>
			<point x="119.7309820731" y="-10" type="qcurve"/>
			<point x="128.7309820731" y="-10" type="line" smooth="yes"/>
			<point x="133.9548626701" y="-10"/>
			<point x="141.3634267101" y="16.5223880597"/>
			<point x="142.4831416179" y="21" type="qcurve"/>
			<point x="95.327659956" y="107.5061913227"/>
			<point x="114.009026751" y="339.0149253731"/>
			<point x="202.2798853137" y="692" type="qcurve" smooth="yes"/>
			<point x="203.0263619189" y="694.9850746269"/>
			<point x="202.0153103337" y="697.0298507463"/>
			<point x="199.0306516038" y="703" type="qcurve" smooth="yes"/>
			<point x="197.3517030875" y="705.2388059701"/>
			<point x="175.228900437" y="710"/>
			<point x="164.7811392429" y="710" type="qcurve" smooth="yes"/>
			<point x="162.5423332728" y="710"/>
			<point x="157.0199452131" y="710"/>
		</contour>
		<contour>
			<point x="618.7811392429" y="710" type="qcurve"/>
			<point x="524.5384678387" y="333.1343283582"/>
			<point x="427.6333325197" y="126.0150595318"/>
			<point x="347.4836989198" y="29" type="qcurve"/>
			<point x="342.4445659379" y="2.8805970149"/>
			<point x="340.2384447597" y="-10"/>
			<point x="341.7309820731" y="-10" type="qcurve" smooth="yes"/>
			<point x="371.7309820731" y="-10" type="line"/>
			<point x="471.7389994287" y="116.4238721179"/>
			<point x="583.3362519327" y="376.3134328358"/>
			<point x="661.5296763255" y="689" type="qcurve" smooth="yes"/>
			<point x="662.6493912333" y="693.4776119403"/>
			<point x="662.4595304573" y="699.7611940299"/>
			<point x="660.7805819411" y="702" type="qcurve" smooth="yes"/>
			<point x="658.5419839194" y="704.9850746269"/>
			<point x="638.4826317803" y="710"/>
			<point x="628.7811392429" y="710" type="qcurve" smooth="yes"/>
			<point x="626.5423332728" y="710"/>
			<point x="621.0199452131" y="710"/>
		</contour>
		<contour>
			<point x="398.5634876142" y="585.1641791045"/>
			<point x="387.4376554465" y="600"/>
			<point x="370.273476342" y="600" type="qcurve" smooth="yes"/>
			<point x="359.273476342" y="600" type="line"/>
			<point x="307.0201139793" y="391.0447761194"/>
			<point x="214.6996328942" y="129.1791044776"/>
			<point x="118.9827236415" y="15" type="qcurve"/>
			<point x="117.4897704311" y="9.0298507463"/>
			<point x="114.5071014761" y="-10"/>
			<point x="119.7309820731" y="-10" type="qcurve" smooth="yes"/>
			<point x="140.7309820731" y="-10" type="line"/>
			<point x="245.4026993094" y="98.2089552239"/>
			<point x="354.3347487572" y="408.2985074627"/>
			<point x="394.2712471344" y="568" type="qcurve" smooth="yes"/>
		</contour>
		<contour>
			<point x="406.0113735774" y="586.9552238806"/>
			<point x="392.6615360435" y="600"/>
			<point x="370.273476342" y="600" type="qcurve" smooth="yes"/>
			<point x="365.273476342" y="600" type="line"/>
			<point x="308.3546351969" y="372.3880597015"/>
			<point x="276.9115570383" y="64.671641791"/>
			<point x="311.9816090377" y="-1" type="qcurve" smooth="yes"/>
			<point x="314.5932374135" y="-5.4776119403"/>
			<point x="323.5071014761" y="-10"/>
			<point x="328.7309820731" y="-10" type="qcurve" smooth="yes"/>
			<point x="352.7309820731" y="-10" type="line" smooth="yes"/>
			<point x="355.7160567" y="-10"/>
			<point x="364.3740665573" y="8.5671641791"/>
			<point x="367.7332112806" y="22" type="qcurve"/>
			<point x="318.1101926556" y="77.223880597"/>
			<point x="354.5044878198" y="380.9850746269"/>
			<point x="403.7719437618" y="578" type="qcurve" smooth="yes"/>
		</contour>
		<contour>
			<point x="374.7878268656" y="806" type="qcurve"/>
			<point x="387.7914493279" y="858" type="line" smooth="yes"/>
			<point x="391.8970706564" y="874.4179104478"/>
			<point x="370.4244845385" y="893"/>
			<point x="346.5438875236" y="893" type="qcurve" smooth="yes"/>
			<point x="337.588663643" y="893"/>
			<point x="322.1370660917" y="891.4925373134"/>
			<point x="315.7936785354" y="890" type="qcurve"/>
			<point x="302.7900560731" y="838" type="line" smooth="yes"/>
			<point x="298.6844347446" y="821.5820895522"/>
			<point x="320.9032895192" y="803"/>
			<point x="344.0376178774" y="803" type="qcurve" smooth="yes"/>
			<point x="352.992841758" y="803"/>
			<point x="368.4444393093" y="804.5074626866"/>
		</contour>
		<contour>
			<point x="574.7878268656" y="806" type="qcurve"/>
			<point x="587.7914493279" y="858" type="line" smooth="yes"/>
			<point x="591.8970706564" y="874.4179104478"/>
			<point x="570.4244845385" y="893"/>
			<point x="546.5438875236" y="893" type="qcurve" smooth="yes"/>
			<point x="537.588663643" y="893"/>
			<point x="522.1370660917" y="891.4925373134"/>
			<point x="515.7936785354" y="890" type="qcurve"/>
			<point x="502.7900560731" y="838" type="line" smooth="yes"/>
			<point x="498.6844347446" y="821.5820895522"/>
			<point x="520.9032895192" y="803"/>
			<point x="544.0376178774" y="803" type="qcurve" smooth="yes"/>
			<point x="552.992841758" y="803"/>
			<point x="568.4444393093" y="804.5074626866"/>
		</contour>
	</outline>
</glyph>
<glyph name="udotbelow" format="2">
	<unicode hex="1EE5"/>
	<advance width="600"/>
	<outline>
		<contour>
			<point x="517.0186696132" y="531" type="qcurve"/>
			<point x="400.9863461038" y="67" type="line" smooth="yes"/>
			<point x="395.9476290188" y="46.8507462687"/>
			<point x="393.0163026118" y="14.9552238806"/>
			<point x="399.7320966769" y="6" type="qcurve" smooth="yes"/>
			<point x="405.3285917311" y="-1.4626865672"/>
			<point x="420.2685741569" y="-6"/>
			<point x="427.731260724" y="-6" type="qcurve" smooth="yes"/>
			<point x="431.4626040076" y="-6"/>
			<point x="440.3768881261" y="-4.4925373134"/>
			<point x="444.4814697123" y="-3" type="qcurve"/>
			<point x="442.8037688868" y="17.1492537313"/>
			<point x="446.4664302594" y="48.9253731343"/>
			<point x="455.2375303703" y="84" type="qcurve" smooth="yes"/>
			<point x="561.2670673703" y="508" type="line" smooth="yes"/>
			<point x="564.6262120936" y="521.4328358209"/>
			<point x="543.436580061" y="531"/>
			<point x="527.0186696132" y="531" type="qcurve" smooth="yes"/>
			<point x="524.7798636431" y="531"/>
			<point x="519.2574755834" y="531"/>
		</contour>
		<contour>
			<point x="52.4942288462" y="73.0298507463"/>
			<point x="97.5256885298" y="-11"/>
			<point x="156.4809124104" y="-11" type="qcurve" smooth="yes"/>
			<point x="222.8988228581" y="-11"/>
			<point x="374.6347724921" y="108.6865671642"/>
			<point x="441.2453325967" y="196" type="qcurve" smooth="yes"/>
			<point x="458.0379369863" y="218.3880597015"/>
			<point x="472.2279706514" y="268.1492537313"/>
			<point x="467.7524381958" y="298" type="qcurve"/>
			<point x="407.1111955511" y="198.7462686567"/>
			<point x="236.8948433084" y="39"/>
			<point x="168.9843955472" y="39" type="qcurve" smooth="yes"/>
			<point x="131.6709627113" y="39"/>
			<point x="105.0967520345" y="98.5373134328"/>
			<point x="114.2425460873" y="156" type="qcurve"/>
			<point x="85.5110988294" y="154.5074626866"/>
			<point x="68.7300950089" y="137.9552238806"/>
			<point x="66.4906651934" y="129" type="qcurve" smooth="yes"/>
		</contour>
		<contour>
			<point x="154.7683212995" y="526" type="qcurve"/>
			<point x="153.4601157043" y="493.9104477612"/>
			<point x="143.5307832312" y="437.0746268657"/>
			<point x="134.7596831203" y="402" type="qcurve" smooth="yes"/>
			<point x="66.4906651934" y="129" type="line"/>
			<point x="60.1456140493" y="103.6268656716"/>
			<point x="74.5802566505" y="76"/>
			<point x="93.2369730684" y="76" type="qcurve"/>
			<point x="129.8124551861" y="195.4029850746"/>
			<point x="164.6005250955" y="313.3880597015"/>
			<point x="184.0089168302" y="391" type="qcurve" smooth="yes"/>
			<point x="185.2592651439" y="396" type="line" smooth="yes"/>
			<point x="204.8542760299" y="474.3582089552"/>
			<point x="186.6714456996" y="528"/>
			<point x="167.268460625" y="528" type="qcurve" smooth="yes"/>
			<point x="163.5371173414" y="528"/>
			<point x="157.193746421" y="526.7462686567"/>
		</contour>
		<contour>
			<point x="230.7195573844" y="-174" type="qcurve"/>
			<point x="243.7231798467" y="-122" type="line" smooth="yes"/>
			<point x="247.8288011752" y="-105.5820895522"/>
			<point x="226.3562150574" y="-87"/>
			<point x="202.4756180424" y="-87" type="qcurve" smooth="yes"/>
			<point x="193.5203941618" y="-87"/>
			<point x="178.0687966105" y="-88.5074626866"/>
			<point x="171.7254090542" y="-90" type="qcurve"/>
			<point x="158.721786592" y="-142" type="line" smooth="yes"/>
			<point x="154.6161652635" y="-158.4179104478"/>
			<point x="176.835020038" y="-177"/>
			<point x="199.9693483962" y="-177" type="qcurve" smooth="yes"/>
			<point x="208.9245722768" y="-177"/>
			<point x="224.3761698281" y="-175.4925373134"/>
		</contour>
	</outline>
</glyph>
<glyph name="daggerdbl" format="2">
	<unicode hex="2021"/>
	<advance width="600"/>
	<outline>
		<contour>
			<point x="401.7811392429" y="710" type="qcurve" smooth="yes"/>
			<point x="395.0647213325" y="710"/>
			<point x="383.8817804976" y="708.4925373134"/>
			<point x="379.0309302547" y="707" type="qcurve"/>
			<point x="376.9768718997" y="680.8805970149"/>
			<point x="366.1783849399" y="627.6119402985"/>
			<point x="359.273476342" y="600" type="qcurve" smooth="yes"/>
			<point x="181.223876474" y="-112" type="line" smooth="yes"/>
			<point x="175.4386827839" y="-135.1343283582"/>
			<point x="188.3106422034" y="-152"/>
			<point x="206.2210899646" y="-152" type="qcurve" smooth="yes"/>
			<point x="212.937507875" y="-152"/>
			<point x="224.1204487099" y="-150.4925373134"/>
			<point x="228.9712989528" y="-149" type="qcurve"/>
			<point x="231.0253573079" y="-122.8805970149"/>
			<point x="241.8238442676" y="-69.6119402985"/>
			<point x="248.7287528656" y="-42" type="qcurve" smooth="yes"/>
			<point x="426.7783527335" y="670" type="line" smooth="yes"/>
			<point x="432.5635464237" y="693.1343283582"/>
			<point x="419.6915870041" y="710"/>
		</contour>
		<contour>
			<point x="106.7630269316" y="450" type="qcurve"/>
			<point x="586.7630269316" y="450" type="line"/>
			<point x="587.3228843855" y="452.2388059701"/>
			<point x="588.7038661051" y="457.7611940299"/>
			<point x="589.263723559" y="460" type="qcurve" smooth="yes"/>
			<point x="593.3693448875" y="476.4179104478"/>
			<point x="589.6993458893" y="500"/>
			<point x="576.2665100684" y="500" type="qcurve" smooth="yes"/>
			<point x="142.2665100684" y="500" type="line" smooth="yes"/>
			<point x="128.8336742475" y="500"/>
			<point x="113.3693448875" y="476.4179104478"/>
			<point x="109.263723559" y="460" type="qcurve"/>
			<point x="108.7038661051" y="457.7611940299"/>
			<point x="107.3228843855" y="452.2388059701"/>
		</contour>
		<contour>
			<point x="498.7390629505" y="106" type="qcurve"/>
			<point x="18.7390629505" y="106" type="line"/>
			<point x="18.1792054966" y="103.7611940299"/>
			<point x="16.798223777" y="98.2388059701"/>
			<point x="16.2383663231" y="96" type="qcurve" smooth="yes"/>
			<point x="12.1327449946" y="79.5820895522"/>
			<point x="15.8027439928" y="56"/>
			<point x="29.2355798137" y="56" type="qcurve" smooth="yes"/>
			<point x="463.2355798137" y="56" type="line" smooth="yes"/>
			<point x="476.6684156346" y="56"/>
			<point x="492.1327449946" y="79.5820895522"/>
			<point x="496.2383663231" y="96" type="qcurve"/>
			<point x="496.798223777" y="98.2388059701"/>
			<point x="498.1792054966" y="103.7611940299"/>
		</contour>
	</outline>
	<guideline x="-65.7683212995" y="0" angle="179.1517819709" identifier="IU1b6gfjqN"/>
	<guideline x="-15.7683212995" y="0" angle="179.1517819709" identifier="F8iPEdhaMF"/>
	<guideline x="34.2316787005" y="0" angle="179.1517819709" identifier="U52JHIpjMn"/>
	<guideline x="84.2316787005" y="0" angle="179.1517819709" identifier="vaqbG5FS7h"/>
	<guideline x="134.2316787005" y="0" angle="179.1517819709" identifier="2cUVf7dM85"/>
	<guideline x="184.2316787005" y="0" angle="179.1517819709" identifier="qjOZPIBOBJ"/>
	<guideline x="234.2316787005" y="0" angle="179.1517819709" identifier="gctvt91Dfb"/>
	<guideline x="284.2316787005" y="0" angle="179.1517819709" identifier="1UbljIVcFl"/>
	<guideline x="334.2316787005" y="0" angle="179.1517819709" identifier="cUquXIw0rK"/>
	<guideline x="384.2316787005" y="0" angle="179.1517819709" identifier="Fpuh5EtYYe"/>
	<guideline x="434.2316787005" y="0" angle="179.1517819709" identifier="ihGi3HP7TW"/>
	<guideline x="484.2316787005" y="0" angle="179.1517819709" identifier="kbrRQvWP6Y"/>
	<guideline x="534.2316787005" y="0" angle="179.1517819709" identifier="QyQBd5vHvw"/>
	<guideline x="-128.2857369835" y="-250" angle="180" identifier="YKJu8pYQRy"/>
	<guideline x="-115.7822538467" y="-200" angle="180" identifier="5H2WG1FTtl"/>
	<guideline x="-103.2787707099" y="-150" angle="180" identifier="FWvLAn2yRe"/>
	<guideline x="-90.7752875731" y="-100" angle="180" identifier="pVODllPDBS"/>
	<guideline x="-78.2718044363" y="-50" angle="180" identifier="Tm4Vyn5TUh"/>
	<guideline x="-65.7683212995" y="0" angle="180" identifier="iPtlBtmBHL"/>
	<guideline x="-53.2648381627" y="50" angle="180" identifier="hlWlbPKjj8"/>
	<guideline x="-40.761355026" y="100" angle="180" identifier="tbUTxTF0qX"/>
	<guideline x="-28.2578718892" y="150" angle="180" identifier="VfEgJxcizl"/>
	<guideline x="-15.7543887524" y="200" angle="180" identifier="yRHG2hxs1W"/>
	<guideline x="-3.2509056156" y="250" angle="180" identifier="jU6FDyqrBC"/>
	<guideline x="9.2525775212" y="300" angle="180" identifier="A4gDa59Q4u"/>
	<guideline x="21.756060658" y="350" angle="180" identifier="OJhwjPycuC"/>
	<guideline x="34.2595437948" y="400" angle="180" identifier="szlCYbbzHl"/>
	<guideline x="46.7630269316" y="450" angle="180" identifier="cffvjl6klS"/>
	<guideline x="59.2665100684" y="500" angle="180" identifier="jzYkuVmP7K"/>
	<guideline x="71.7699932052" y="550" angle="180" identifier="78RJDjtKjJ"/>
	<guideline x="84.273476342" y="600" angle="180" identifier="5ysWvgLFlt"/>
	<guideline x="96.7769594788" y="650" angle="180" identifier="GeVaNvmunn"/>
	<guideline x="109.2804426156" y="700" angle="180" identifier="leYTPgqEVJ"/>
</glyph>
<glyph name="uni2126" format="2">
	<unicode hex="2126"/>
	<advance width="600"/>
	<outline>
		<contour>
			<point x="-3.2648381627" y="50" type="line"/>
			<point x="-3.8246956166" y="47.7611940299"/>
			<point x="-5.2056773362" y="42.2388059701"/>
			<point x="-5.7655347901" y="40" type="qcurve" smooth="yes"/>
			<point x="-10.4310135725" y="21.3432835821"/>
			<point x="-3.9623511503" y="0"/>
			<point x="7.2316787005" y="0" type="qcurve" smooth="yes"/>
			<point x="194.2316787005" y="0" type="line"/>
			<point x="194.7915361543" y="2.2388059701"/>
			<point x="196.1725178739" y="7.7611940299"/>
			<point x="196.7323753278" y="10" type="qcurve" smooth="yes"/>
			<point x="200.8379966563" y="26.4179104478"/>
			<point x="197.1679976581" y="50"/>
			<point x="183.7351618373" y="50" type="qcurve" smooth="yes"/>
		</contour>
		<contour>
			<point x="414.2818358703" y="720" type="qcurve" smooth="yes"/>
			<point x="298.6101940793" y="720"/>
			<point x="130.4436039763" y="524.7014925373"/>
			<point x="90.5071055991" y="365" type="qcurve" smooth="yes"/>
			<point x="83.005015717" y="335" type="line" smooth="yes"/>
			<point x="46.6142812144" y="189.4776119403"/>
			<point x="102.8013507381" y="36"/>
			<point x="166.234186559" y="36" type="qcurve" smooth="yes"/>
			<point x="174.4431417828" y="36"/>
			<point x="185.2419299759" y="40.0298507463"/>
			<point x="186.7348831863" y="46" type="qcurve"/>
			<point x="129.8330938154" y="63.1641791045"/>
			<point x="102.6570093333" y="213.6417910448"/>
			<point x="134.7555033561" y="342" type="qcurve" smooth="yes"/>
			<point x="140.5071055991" y="365" type="line" smooth="yes"/>
			<point x="175.21826774" y="503.8059701493"/>
			<point x="313.0171587037" y="670"/>
			<point x="410.7783527335" y="670" type="qcurve" smooth="yes"/>
			<point x="438.390293032" y="670"/>
			<point x="493.2326138127" y="656.1791044776"/>
			<point x="521.7764021769" y="642" type="qcurve"/>
			<point x="547.8972608012" y="662.8955223881"/>
			<point x="473.2370597509" y="720"/>
		</contour>
		<contour>
			<point x="302.9841168962" y="35" type="qcurve" smooth="yes"/>
			<point x="379.1035198813" y="35"/>
			<point x="521.9889127717" y="210.9701492537"/>
			<point x="558.0064089717" y="355" type="qcurve" smooth="yes"/>
			<point x="565.5084988538" y="385" type="line" smooth="yes"/>
			<point x="603.7654248693" y="537.9850746269"/>
			<point x="535.1773582584" y="720"/>
			<point x="414.2818358703" y="720" type="qcurve" smooth="yes"/>
			<point x="406.0728806464" y="720"/>
			<point x="392.1388907115" y="703.4328358209"/>
			<point x="388.7797459882" y="690" type="qcurve"/>
			<point x="495.682367153" y="684.776119403"/>
			<point x="548.2825542043" y="516.0597014925"/>
			<point x="513.7580112146" y="378" type="qcurve" smooth="yes"/>
			<point x="508.0064089717" y="355" type="line" smooth="yes"/>
			<point x="472.5487702256" y="213.2089552239"/>
			<point x="359.9563664294" y="65.1492537313"/>
			<point x="291.4848135236" y="45" type="qcurve"/>
			<point x="290.5517177671" y="41.2686567164"/>
			<point x="295.5214303291" y="35"/>
		</contour>
		<contour>
			<point x="286.7351618373" y="50" type="line"/>
			<point x="286.1753043834" y="47.7611940299"/>
			<point x="284.7943226638" y="42.2388059701"/>
			<point x="284.2344652099" y="40" type="qcurve" smooth="yes"/>
			<point x="279.5689864275" y="21.3432835821"/>
			<point x="286.0376488497" y="0"/>
			<point x="297.2316787005" y="0" type="qcurve" smooth="yes"/>
			<point x="484.2316787005" y="0" type="line"/>
			<point x="484.7915361543" y="2.2388059701"/>
			<point x="486.1725178739" y="7.7611940299"/>
			<point x="486.7323753278" y="10" type="qcurve" smooth="yes"/>
			<point x="490.8379966563" y="26.4179104478"/>
			<point x="487.1679976581" y="50"/>
			<point x="473.7351618373" y="50" type="qcurve" smooth="yes"/>
		</contour>
	</outline>
</glyph>
<glyph name="uni2192" format="2">
	<unicode hex="2192"/>
	<advance width="600"/>
	<outline>
		<contour>
			<point x="460.2514629175" y="284" type="qcurve"/>
			<point x="460.8113203713" y="286.2388059701"/>
			<point x="462.1923020909" y="291.7611940299"/>
			<point x="462.7521595448" y="294" type="qcurve" smooth="yes"/>
			<point x="465.3648276629" y="304.447761194"/>
			<point x="458.5111724872" y="316.2537313433"/>
			<point x="447.5037617877" y="317" type="qcurve" smooth="yes"/>
			<point x="372.6906928617" y="322.223880597"/>
			<point x="265.1610355075" y="325"/>
			<point x="146.5043190896" y="325" type="qcurve" smooth="yes"/>
			<point x="44.5043190896" y="325" type="line"/>
			<point x="40.9591790604" y="319.776119403"/>
			<point x="36.9324285338" y="310.7164179104"/>
			<point x="35.2528561722" y="304" type="qcurve" smooth="yes"/>
			<point x="32.0803306001" y="291.3134328358"/>
			<point x="40.5530747588" y="275"/>
			<point x="51.0008359528" y="275" type="qcurve" smooth="yes"/>
			<point x="132.0008359528" y="275" type="line" smooth="yes"/>
			<point x="253.6426269976" y="275"/>
			<point x="372.9376141847" y="278.0298507463"/>
		</contour>
		<contour>
			<point x="275.4917797972" y="145" type="qcurve"/>
			<point x="274.4915011462" y="141" type="line" smooth="yes"/>
			<point x="271.1323564229" y="127.5671641791"/>
			<point x="275.0263067206" y="105"/>
			<point x="282.4889932877" y="105" type="qcurve" smooth="yes"/>
			<point x="289.9516798549" y="105"/>
			<point x="312.7879041704" y="110.7910447761"/>
			<point x="334.989968566" y="119" type="qcurve" smooth="yes"/>
			<point x="409.6189137223" y="148.8507462687"/>
			<point x="524.4820822484" y="220.0447761194"/>
			<point x="584.0011146038" y="279" type="qcurve"/>
			<point x="590.5029258349" y="305" type="line"/>
			<point x="587.1454446993" y="315.447761194"/>
			<point x="573.839963229" y="322.4626865672"/>
			<point x="566.0036224623" y="315" type="qcurve" smooth="yes"/>
			<point x="495.1033172595" y="246.3432835821"/>
			<point x="360.9411006047" y="167.3880597015"/>
		</contour>
		<contour>
			<point x="371.0169977076" y="507" type="qcurve"/>
			<point x="366.5389698703" y="501.0298507463"/>
			<point x="361.6948981636" y="489.7164179104"/>
			<point x="360.0153258019" y="483" type="qcurve" smooth="yes"/>
			<point x="356.0963236247" y="467.328358209"/>
			<point x="359.6028047945" y="453.2388059701"/>
			<point x="365.0130965943" y="451" type="qcurve" smooth="yes"/>
			<point x="438.7049949733" y="420.4029850746"/>
			<point x="511.5926592808" y="361.1641791045"/>
			<point x="553.7521595448" y="294" type="qcurve" smooth="yes"/>
			<point x="556.3637879206" y="289.5223880597"/>
			<point x="557.9339317093" y="278.7313432836"/>
			<point x="557.0008359528" y="275" type="qcurve" smooth="yes"/>
			<point x="556.8142168015" y="274.2537313433"/>
			<point x="555.4332350819" y="268.7313432836"/>
			<point x="554.5001393255" y="265" type="qcurve"/>
			<point x="568.8662788513" y="271.7164179104"/>
			<point x="587.2632173684" y="292.0447761194"/>
			<point x="589.502647184" y="301" type="qcurve" smooth="yes"/>
			<point x="591.5032044859" y="309" type="line" smooth="yes"/>
			<point x="593.7426343014" y="317.9552238806"/>
			<point x="589.657987275" y="334.8059701493"/>
			<point x="582.7557820071" y="346" type="qcurve" smooth="yes"/>
			<point x="542.0881952111" y="404.2089552239"/>
			<point x="456.6489866455" y="473.4179104478"/>
		</contour>
	</outline>
</glyph>
<glyph name="uni2206" format="2">
	<unicode hex="2206"/>
	<advance width="600"/>
	<outline>
		<contour>
			<point x="54.2316787005" y="0" type="line"/>
			<point x="106.8582793658" y="210.447761194"/>
			<point x="286.4187499397" y="542.8656716418"/>
			<point x="403.7780740826" y="666" type="qcurve" smooth="yes"/>
			<point x="416.0924426865" y="679.4328358209"/>
			<point x="408.9900944668" y="710"/>
			<point x="400.7811392429" y="710" type="qcurve" smooth="yes"/>
			<point x="381.7811392429" y="710" type="line"/>
			<point x="245.203785589" y="563.7313432836"/>
			<point x="62.4232624574" y="232.7014925373"/>
			<point x="9.9832809434" y="23" type="qcurve" smooth="yes"/>
			<point x="6.6241362201" y="9.5671641791"/>
			<point x="25.2764548199" y="0"/>
			<point x="34.2316787005" y="0" type="qcurve" smooth="yes"/>
		</contour>
		<contour>
			<point x="465.2316787005" y="0" type="line"/>
			<point x="515.6188495502" y="201.4925373134"/>
			<point x="499.3516294298" y="543.4925373134"/>
			<point x="465.7764021769" y="642" type="qcurve" smooth="yes"/>
			<point x="456.2634003271" y="669.6119402985"/>
			<point x="441.0077083217" y="695.0298507463"/>
			<point x="436.5305122783" y="701" type="qcurve" smooth="yes"/>
			<point x="433.1726152458" y="705.4776119403"/>
			<point x="414.9602437206" y="710"/>
			<point x="400.7811392429" y="710" type="qcurve" smooth="yes"/>
			<point x="392.5721840191" y="710"/>
			<point x="375.7685488392" y="689.9552238806"/>
			<point x="373.5291190236" y="681" type="qcurve"/>
			<point x="377.2604623072" y="681"/>
			<point x="383.2903130535" y="681"/>
			<point x="385.5291190236" y="681" type="qcurve" smooth="yes"/>
			<point x="389.2604623072" y="681"/>
			<point x="395.3383224796" y="673.8507462687"/>
			<point x="407.2765415024" y="644" type="qcurve" smooth="yes"/>
			<point x="453.1638499261" y="526.0895522388"/>
			<point x="457.9376052829" y="170.776119403"/>
			<point x="421.7334899316" y="26" type="qcurve" smooth="yes"/>
			<point x="417.6278686031" y="9.5820895522"/>
			<point x="437.5045998092" y="0"/>
			<point x="449.2316787005" y="0" type="qcurve"/>
		</contour>
		<contour>
			<point x="36.7351618373" y="50" type="qcurve"/>
			<point x="34.2344652099" y="40" type="line" smooth="yes"/>
			<point x="30.1288438814" y="23.5820895522"/>
			<point x="33.7988428796" y="0"/>
			<point x="47.2316787005" y="0" type="qcurve"/>
			<point x="455.2316787005" y="0" type="line"/>
			<point x="462.1365872984" y="27.6119402985"/>
			<point x="440.5560573596" y="50"/>
			<point x="404.7351618373" y="50" type="qcurve" smooth="yes"/>
			<point x="82.7351618373" y="50" type="line"/>
			<point x="71.5411319865" y="50"/>
			<point x="47.929191688" y="50"/>
		</contour>
	</outline>
</glyph>
<glyph name="at.short" format="2">
	<advance width="600"/>
	<outline>
		<contour>
			<point x="269.7449146203" y="190" type="qcurve" smooth="yes"/>
			<point x="277.2470045024" y="220" type="line" smooth="yes"/>
			<point x="304.8666388941" y="330.447761194"/>
			<point x="353.2529357764" y="412.2686567164"/>
			<point x="401.7641415354" y="466" type="qcurve"/>
			<point x="387.3988338034" y="471.223880597"/>
			<point x="363.4099228193" y="469.7164179104"/>
			<point x="355.0139325472" y="463" type="qcurve" smooth="yes"/>
			<point x="311.1682055706" y="427.9253731343"/>
			<point x="249.3203177176" y="308.2686567164"/>
			<point x="225.2464472005" y="212" type="qcurve" smooth="yes"/>
			<point x="219.994984283" y="191" type="line" smooth="yes"/>
			<point x="197.0408286737" y="99.2089552239"/>
			<point x="226.9697880432" y="-10"/>
			<point x="274.7309820731" y="-10" type="qcurve" smooth="yes"/>
			<point x="313.5369522224" y="-10"/>
			<point x="386.1768200358" y="15.9552238806"/>
			<point x="437.4856494764" y="57" type="qcurve" smooth="yes"/>
			<point x="448.6803031725" y="65.9552238806"/>
			<point x="461.9814682166" y="104.1044776119"/>
			<point x="460.4903865424" y="125" type="qcurve"/>
			<point x="419.0694608419" y="81.7164179104"/>
			<point x="334.3240174487" y="40"/>
			<point x="302.2344652099" y="40" type="qcurve" smooth="yes"/>
			<point x="298.2344652099" y="40" type="line" smooth="yes"/>
			<point x="269.129987598" y="40"/>
			<point x="253.5090484576" y="125.0746268657"/>
		</contour>
		<contour>
			<point x="546.0153258019" y="483" type="qcurve" smooth="yes"/>
			<point x="537.6205832206" y="494.1940298507"/>
			<point x="493.8342315494" y="508"/>
			<point x="457.2670673703" y="508" type="qcurve" smooth="yes"/>
			<point x="431.1476643852" y="508"/>
			<point x="383.560216293" y="484.6417910448"/>
			<point x="355.0139325472" y="463" type="qcurve" smooth="yes"/>
			<point x="339.154839811" y="450.3134328358"/>
			<point x="328.95867225" y="419.6268656716"/>
			<point x="331.0091954811" y="395" type="qcurve"/>
			<point x="365.3398411232" y="427.8358208955"/>
			<point x="414.6779723262" y="461"/>
			<point x="447.5137932217" y="461" type="qcurve" smooth="yes"/>
			<point x="477.3645394904" y="461"/>
			<point x="513.4796819033" y="453.4029850746"/>
			<point x="531.7619123278" y="434" type="qcurve"/>
			<point x="546.129091596" y="455.6417910448"/>
			<point x="549.3732228344" y="478.5223880597"/>
		</contour>
		<contour>
			<point x="453.7811392429" y="710" type="line" smooth="yes"/>
			<point x="318.7065123773" y="710"/>
			<point x="99.2006616192" y="411.7611940299"/>
			<point x="37.2431033891" y="164" type="qcurve" smooth="yes"/>
			<point x="33.2419887854" y="148" type="line" smooth="yes"/>
			<point x="9.5413565708" y="53.223880597"/>
			<point x="5.6664561762" y="-79.2537313433"/>
			<point x="43.7226225448" y="-130" type="qcurve" smooth="yes"/>
			<point x="58.8331591912" y="-150.1492537313"/>
			<point x="92.7400118153" y="-148.1940298507"/>
			<point x="108.9721349056" y="-137" type="qcurve"/>
			<point x="58.2321047029" y="-47.447761194"/>
			<point x="61.9599407716" y="62.8955223881"/>
			<point x="81.741570809" y="142" type="qcurve" smooth="yes"/>
			<point x="86.4928944009" y="161" type="line" smooth="yes"/>
			<point x="147.7039760258" y="405.776119403"/>
			<point x="345.7552680465" y="660"/>
			<point x="441.2776561062" y="660" type="qcurve" smooth="yes"/>
			<point x="483.814969539" y="660"/>
			<point x="534.962909036" y="641.1343283582"/>
			<point x="559.7747302712" y="618" type="qcurve"/>
			<point x="572.0888909267" y="628.447761194"/>
			<point x="575.4343579677" y="659.7910447761"/>
			<point x="569.278213408" y="668" type="qcurve" smooth="yes"/>
			<point x="554.7273262671" y="687.4029850746"/>
			<point x="498.3333780489" y="710"/>
			<point x="458.7811392429" y="710" type="qcurve" smooth="yes"/>
		</contour>
		<contour>
			<point x="225.7184427806" y="-190" type="line" smooth="yes"/>
			<point x="264.5244129299" y="-190"/>
			<point x="341.5441187463" y="-174.9402985075"/>
			<point x="356.4703236745" y="-163" type="qcurve" smooth="yes"/>
			<point x="365.7992017546" y="-155.5373134328"/>
			<point x="379.0507936001" y="-132.6865671642"/>
			<point x="382.2233191722" y="-120" type="qcurve" smooth="yes"/>
			<point x="384.223876474" y="-112" type="line"/>
			<point x="380.223876474" y="-112" type="line"/>
			<point x="341.7898969366" y="-128.4179104478"/>
			<point x="270.505508007" y="-140"/>
			<point x="227.2219259174" y="-140" type="qcurve" smooth="yes"/>
			<point x="167.5204333801" y="-140"/>
			<point x="84.653919839" y="-98.5223880597"/>
			<point x="57.9779865755" y="-53" type="qcurve"/>
			<point x="46.7831249308" y="-64.9402985075"/>
			<point x="34.7682304581" y="-118.0597014925"/>
			<point x="43.7226225448" y="-130" type="qcurve"/>
			<point x="66.1086027616" y="-159.8507462687"/>
			<point x="153.7482935269" y="-190"/>
			<point x="209.7184427806" y="-190" type="qcurve" smooth="yes"/>
		</contour>
		<contour>
			<point x="471.4814697123" y="-3" type="line"/>
			<point x="469.6173576839" y="19.3880597015"/>
			<point x="473.4664302594" y="48.9253731343"/>
			<point x="482.2375303703" y="84" type="qcurve" smooth="yes"/>
			<point x="577.7641415354" y="466" type="line" smooth="yes"/>
			<point x="594.7464843033" y="533.9104477612"/>
			<point x="596.1413896682" y="632.1791044776"/>
			<point x="569.278213408" y="668" type="qcurve" smooth="yes"/>
			<point x="558.0852232996" y="682.9253731343"/>
			<point x="532.3687180508" y="681.671641791"/>
			<point x="512.7780740826" y="666" type="qcurve"/>
			<point x="546.3555887686" y="600.328358209"/>
			<point x="541.3686776648" y="520.4029850746"/>
			<point x="524.0130965943" y="451" type="qcurve" smooth="yes"/>
			<point x="422.2347438608" y="44" type="line" smooth="yes"/>
			<point x="415.8896927168" y="18.6268656716"/>
			<point x="441.6008726973" y="-3"/>
			<point x="465.4814697123" y="-3" type="qcurve"/>
		</contour>
	</outline>
</glyph>
<glyph name="dotbelowcomb.case" format="2">
	<outline>
		<contour>
			<point x="-71.7811392429" y="-184" type="qcurve"/>
			<point x="-58.7775167807" y="-132" type="line" smooth="yes"/>
			<point x="-54.6718954522" y="-115.5820895522"/>
			<point x="-76.14448157" y="-97"/>
			<point x="-100.0250785849" y="-97" type="qcurve" smooth="yes"/>
			<point x="-108.9803024655" y="-97"/>
			<point x="-124.4319000168" y="-98.5074626866"/>
			<point x="-130.7752875731" y="-100" type="qcurve"/>
			<point x="-143.7789100354" y="-152" type="line" smooth="yes"/>
			<point x="-147.8845313639" y="-168.4179104478"/>
			<point x="-125.6656765894" y="-187"/>
			<point x="-102.5313482312" y="-187" type="qcurve" smooth="yes"/>
			<point x="-93.5761243506" y="-187"/>
			<point x="-78.1245267993" y="-185.4925373134"/>
		</contour>
	</outline>
	<anchor name="_bottom" x="-68.5190875896" y="-11"/>
</glyph>
<glyph name="g.ver02" format="2">
	<advance width="600"/>
	<outline>
		<contour>
			<point x="359.0144898491" y="471" type="qcurve" smooth="yes"/>
			<point x="409.0144898491" y="471"/>
			<point x="493.1544779806" y="445.1194029851"/>
			<point x="509.0108673868" y="419" type="qcurve"/>
			<point x="526.735735739" y="433.1791044776"/>
			<point x="532.8979001148" y="457.8208955224"/>
			<point x="522.2645595118" y="472" type="qcurve" smooth="yes"/>
			<point x="500.9978783058" y="500.3582089552"/>
			<point x="402.0738734724" y="520"/>
			<point x="363.2679033231" y="520" type="qcurve" smooth="yes"/>
			<point x="272.9693958604" y="520"/>
			<point x="120.9778332415" y="426.8656716418"/>
			<point x="101.756060658" y="350" type="qcurve" smooth="yes"/>
			<point x="89.2525775212" y="300" type="line" smooth="yes"/>
			<point x="78.6152858974" y="257.4626865672"/>
			<point x="88.1080287879" y="206.8507462687"/>
			<point x="110.4940090047" y="177" type="qcurve" smooth="yes"/>
			<point x="122.2466486186" y="161.328358209"/>
			<point x="154.1753507159" y="155.552238806"/>
			<point x="165.7432427146" y="166" type="qcurve"/>
			<point x="138.5072440488" y="206.2985074627"/>
			<point x="125.2262821099" y="243.9104477612"/>
			<point x="133.2509056156" y="276" type="qcurve" smooth="yes"/>
			<point x="143.7538314505" y="318" type="line" smooth="yes"/>
			<point x="163.5354614878" y="397.1044776119"/>
			<point x="277.671206267" y="471"/>
		</contour>
		<contour>
			<point x="274.9938696792" y="175" type="qcurve" smooth="yes"/>
			<point x="233.2028249031" y="175"/>
			<point x="153.0733518497" y="191.1343283582"/>
			<point x="118.7468651769" y="218" type="qcurve"/>
			<point x="108.6715104916" y="207.552238806"/>
			<point x="103.4051845855" y="187.447761194"/>
			<point x="110.4940090047" y="177" type="qcurve" smooth="yes"/>
			<point x="132.8797812731" y="144.1641791045"/>
			<point x="210.3112820648" y="125"/>
			<point x="274.4903865424" y="125" type="qcurve" smooth="yes"/>
			<point x="370.7590432589" y="125"/>
			<point x="513.2219924249" y="235.8955223881"/>
			<point x="533.0036224623" y="315" type="qcurve" smooth="yes"/>
			<point x="545.5071055991" y="365" type="line" smooth="yes"/>
			<point x="552.5986333483" y="393.3582089552"/>
			<point x="542.411941707" y="445.1343283582"/>
			<point x="522.2645595118" y="472" type="qcurve" smooth="yes"/>
			<point x="515.5487654468" y="480.9552238806"/>
			<point x="475.8437859056" y="484.4626865672"/>
			<point x="466.5149078255" y="477" type="qcurve"/>
			<point x="497.6692848232" y="443.4179104478"/>
			<point x="503.6474329786" y="397.552238806"/>
			<point x="493.7566179599" y="358" type="qcurve" smooth="yes"/>
			<point x="480.7529954976" y="306" type="line" smooth="yes"/>
			<point x="466.7565591505" y="250.0298507463"/>
			<point x="353.3520786345" y="175"/>
		</contour>
		<contour>
			<point x="101.2364157665" y="68" type="qcurve" smooth="yes"/>
			<point x="97.9855101509" y="55" type="line" smooth="yes"/>
			<point x="88.0946951323" y="15.447761194"/>
			<point x="124.7112804156" y="-25"/>
			<point x="170.9799371321" y="-25" type="qcurve" smooth="yes"/>
			<point x="373.9799371321" y="-25" type="line" smooth="yes"/>
			<point x="397.860534147" y="-25"/>
			<point x="420.0112993717" y="-56.8656716418"/>
			<point x="414.2261056816" y="-80" type="qcurve" smooth="yes"/>
			<point x="402.7229011957" y="-126" type="line" smooth="yes"/>
			<point x="395.0715159926" y="-156.5970149254"/>
			<point x="375.9766301676" y="-179.5970149254"/>
			<point x="352.467815816" y="-199" type="qcurve"/>
			<point x="356.9450118594" y="-204.9701492537"/>
			<point x="381.5045740264" y="-206.9701492537"/>
			<point x="388.9676764905" y="-201" type="qcurve" smooth="yes"/>
			<point x="417.8871985389" y="-177.8656716418"/>
			<point x="449.6324880503" y="-138.3582089552"/>
			<point x="456.7240157995" y="-110" type="qcurve" smooth="yes"/>
			<point x="468.4772899481" y="-63" type="line" smooth="yes"/>
			<point x="477.6216283616" y="-26.4328358209"/>
			<point x="430.7670023584" y="25"/>
			<point x="387.4834202689" y="25" type="qcurve" smooth="yes"/>
			<point x="175.4834202689" y="25" type="line" smooth="yes"/>
			<point x="155.3341665375" y="25"/>
			<point x="144.1971413796" y="39.8507462687"/>
			<point x="149.2358584646" y="60" type="qcurve" smooth="yes"/>
			<point x="153.9871820566" y="79" type="line" smooth="yes"/>
			<point x="158.4660416877" y="96.9104477612"/>
			<point x="191.1293726544" y="138.2985074627"/>
			<point x="206.2419887854" y="148" type="qcurve"/>
			<point x="207.5483228444" y="153.223880597"/>
			<point x="201.7015709739" y="157"/>
			<point x="193.49261575" y="157" type="qcurve" smooth="yes"/>
			<point x="177.8209739589" y="157"/>
			<point x="108.1413243644" y="95.6119402985"/>
		</contour>
		<contour>
			<point x="408.9710203019" y="-153" type="qcurve"/>
			<point x="352.998583615" y="-185.8358208955"/>
			<point x="272.411776004" y="-200"/>
			<point x="211.2177461533" y="-200" type="qcurve"/>
			<point x="110.2177461533" y="-200" type="line"/>
			<point x="62.4565521234" y="-200"/>
			<point x="18.828632445" y="-161.5671641791"/>
			<point x="27.9729708585" y="-125" type="qcurve" smooth="yes"/>
			<point x="34.2247124269" y="-100" type="line" smooth="yes"/>
			<point x="40.009906117" y="-76.8656716418"/>
			<point x="88.8610082695" y="-18.1940298507"/>
			<point x="127.4811910613" y="-7" type="qcurve"/>
			<point x="128.7875251204" y="-1.776119403"/>
			<point x="125.9486539128" y="8"/>
			<point x="119.2322360023" y="8" type="qcurve"/>
			<point x="75.9486539128" y="8"/>
			<point x="-7.5192563198" y="-66.9850746269"/>
			<point x="-19.2762628514" y="-114" type="qcurve" smooth="yes"/>
			<point x="-23.5274471179" y="-131" type="line" smooth="yes"/>
			<point x="-35.4710728009" y="-178.7611940299"/>
			<point x="24.2665018225" y="-250"/>
			<point x="84.7142630165" y="-250" type="qcurve"/>
			<point x="161.7142630165" y="-250" type="line"/>
			<point x="239.326203315" y="-250"/>
			<point x="355.3837154021" y="-227.8656716418"/>
			<point x="388.9676764905" y="-201" type="qcurve"/>
			<point x="400.1623301867" y="-192.0447761194"/>
			<point x="414.0078658507" y="-159.7164179104"/>
		</contour>
		<contour>
			<point x="496.0136538962" y="459" type="qcurve" smooth="yes"/>
			<point x="575.2681819741" y="524" type="line" smooth="yes"/>
			<point x="600.4561527904" y="544.1492537313"/>
			<point x="626.491457733" y="568.8805970149"/>
			<point x="633.0231280283" y="595" type="qcurve" smooth="yes"/>
			<point x="634.7736156675" y="602" type="line" smooth="yes"/>
			<point x="635.7067114239" y="605.7313432836"/>
			<point x="634.4534001366" y="611.7611940299"/>
			<point x="632.7744516203" y="614" type="qcurve" smooth="yes"/>
			<point x="628.2972555769" y="619.9701492537"/>
			<point x="613.2117850746" y="625"/>
			<point x="600.5252179104" y="625" type="qcurve" smooth="yes"/>
			<point x="590.5252179104" y="625" type="line"/>
			<point x="588.024521283" y="615" type="line" smooth="yes"/>
			<point x="584.2921382571" y="600.0746268657"/>
			<point x="569.1562502854" y="577.6865671642"/>
			<point x="558.5210381462" y="565" type="qcurve" smooth="yes"/>
			<point x="473.5140718727" y="465" type="line"/>
			<point x="475.0061932892" y="459.0298507463"/>
			<point x="489.4834392402" y="453.776119403"/>
		</contour>
	</outline>
</glyph>
